<?xml version="1.0" encoding="UTF-8" standalone="no"?><!DOCTYPE svg PUBLIC "-//W3C//DTD SVG 1.1//EN" "http://www.w3.org/Graphics/SVG/1.1/DTD/svg11.dtd"><svg width="287px" height="55px" version="1.1" xmlns="http://www.w3.org/2000/svg" xmlns:xlink="http://www.w3.org/1999/xlink" xml:space="preserve" xmlns:serif="http://www.serif.com/" style="fill-rule:evenodd;clip-rule:evenodd;stroke-linejoin:round;stroke-miterlimit:2;"><rect id="Artboard1" x="0" y="0" width="286.299" height="54.448" style="fill:none;"/><g id="Artboard11" serif:id="Artboard1"><g transform="matrix(0.597505,0,0,0.597505,149.928,17.3009)"><path d="M0,33.216l0,5.289c0,3.525 1.577,5.722 4.732,6.588c0.123,0.062 0.355,0.356 0.696,0.881c0.339,0.526 0.51,0.882 0.51,1.067c0,0.742 -0.649,1.113 -1.948,1.113l-1.485,0c-2.598,-0.125 -4.547,-0.278 -5.845,-0.463l-0.186,0c-0.371,0 -1.145,0.123 -2.319,0.371c-0.867,0.123 -1.517,0.185 -1.949,0.185c-0.371,-0 -1.484,-0.093 -3.34,-0.278c-0.186,-0.063 -0.371,-0.093 -0.557,-0.093c-0.185,-0 -0.588,0.061 -1.206,0.186c-0.619,0.123 -1.052,0.185 -1.299,0.185c-0.681,-0 -1.02,-0.278 -1.02,-0.835c0,-0.617 0.371,-1.206 1.113,-1.762c0.123,-0.062 0.432,-0.216 0.928,-0.464c0.494,-0.247 0.849,-0.433 1.067,-0.557c0.216,-0.124 0.525,-0.309 0.927,-0.557c0.402,-0.247 0.697,-0.478 0.882,-0.696c0.186,-0.216 0.402,-0.478 0.65,-0.789c0.246,-0.308 0.432,-0.649 0.556,-1.02c0.494,-1.299 0.835,-3.526 1.021,-6.68l0,-4.361l-0.186,-6.495l0,-1.021l0.093,-4.546l0.093,-1.948c0,-1.361 0.03,-2.474 0.093,-3.341c0.061,-0.928 0.092,-1.7 0.092,-2.319c0,-0.246 -0.031,-0.587 -0.092,-1.021c-0,-0.123 -0.063,-1.73 -0.186,-4.824l0,-1.671l0.093,-5.288c0,-0.494 -0.125,-1.206 -0.371,-2.134l-0.279,-1.114c-0.248,-1.174 -0.588,-1.793 -1.02,-1.856l-1.578,0c-0.556,0 -1.238,-0.123 -2.041,-0.371c-0.556,-0.246 -1.053,-0.371 -1.484,-0.371c-1.671,0 -3.125,0.434 -4.361,1.299c-0.682,0.496 -1.299,1.206 -1.856,2.135c-0.31,0.804 -0.742,2.041 -1.299,3.711c-0.371,1.052 -1.113,1.577 -2.226,1.577c-0.62,0 -0.929,-0.432 -0.929,-1.299l0.093,-7.608c0,-0.186 -0.032,-0.309 -0.093,-0.371c-0.124,-0.989 -0.247,-1.979 -0.371,-2.969c-0.124,-0.989 -0.217,-1.685 -0.278,-2.088c-0.062,-0.401 -0.093,-0.634 -0.093,-0.696c0.124,-0.309 0.525,-0.464 1.207,-0.464l0.742,0.185c3.092,0.743 5.442,1.114 7.051,1.114c0.124,0 0.309,-0.031 0.557,-0.093c0.246,-0.061 0.618,-0.123 1.114,-0.186c0.494,-0.06 0.988,-0.123 1.484,-0.185c2.969,0 5.289,-0.154 6.958,-0.464c0.989,-0.123 1.516,-0.186 1.578,-0.186c-0.31,0 0.246,0.093 1.67,0.279l5.752,0.835c1.423,0.185 2.506,0.248 3.248,0.185c0.247,0 0.649,-0.03 1.206,-0.093c0.68,-0.123 1.701,-0.246 3.062,-0.371c1.979,-0.123 3.371,-0.246 4.175,-0.371c0.061,0 0.2,-0.03 0.418,-0.093c0.216,-0.06 0.51,-0.138 0.881,-0.231c0.371,-0.093 0.743,-0.2 1.114,-0.325c1.051,-0.309 1.823,-0.464 2.319,-0.464c1.051,0 1.577,0.403 1.577,1.206c-0,0.248 -0.248,0.96 -0.742,2.135l-0.371,0.927c-0.433,0.991 -0.897,2.661 -1.391,5.01c-0.497,2.352 -0.96,4.022 -1.392,5.011c-0.371,0.682 -0.928,1.02 -1.67,1.02c-0.805,0 -1.239,-0.679 -1.299,-2.041c-0.063,-1.855 -0.65,-3.278 -1.763,-4.268c-0.557,-0.371 -1.703,-0.617 -3.434,-0.742c-0.062,0 -0.417,-0.076 -1.066,-0.232c-0.65,-0.154 -1.285,-0.293 -1.902,-0.418c-0.186,-0.06 -0.434,-0.092 -0.742,-0.092c-0.557,0 -1.207,0.185 -1.949,0.556c-0.248,0.063 -0.712,0.742 -1.392,2.041c-0.742,1.053 -1.083,1.857 -1.02,2.413l0.092,2.691l0.279,2.226l-0,1.114l0.093,1.856c-0,1.794 -0.032,3.124 -0.093,3.989l-0.186,1.856l-0,8.258l0.093,3.061c-0,0.186 -0.032,0.434 -0.093,0.742c-0.248,1.918 -0.371,3.589 -0.371,5.011l0.464,4.917Z" style="fill:#fff;fill-rule:nonzero;"/></g><g transform="matrix(0.597505,0,0,0.597505,165.951,45.9348)"><path d="M0,-62.629l2.041,0.093c0.186,-0 0.479,-0.015 0.881,-0.046c0.402,-0.03 0.974,-0.062 1.717,-0.093c0.742,-0.03 1.453,-0.047 2.133,-0.047c0.619,-0 1.331,-0.03 2.135,-0.093c0.123,0 0.51,-0.014 1.159,-0.045c0.65,-0.031 1.098,-0.047 1.346,-0.047c1.299,0 2.845,0.217 4.639,0.649c0.185,0.063 0.371,0.093 0.556,0.093c0.186,-0 0.867,-0.093 2.042,-0.278c0.061,-0.061 0.464,-0.093 1.206,-0.093c0.803,-0 1.608,-0.031 2.413,-0.093c0.617,-0.061 1.36,-0.093 2.226,-0.093c1.299,0 2.722,0.155 4.269,0.464c0.06,0 0.185,0.032 0.371,0.093c0.185,0.062 0.339,0.093 0.464,0.093c0.185,-0.061 0.895,-0.186 2.133,-0.371l0.65,0c1.299,0 2.01,0.526 2.134,1.577c0.061,0.248 0.185,1.825 0.371,4.732c-0.062,0.557 -0.093,1.083 -0.093,1.577c0,0.063 0.015,0.218 0.047,0.464c0.03,0.248 0.093,0.696 0.185,1.346c0.093,0.649 0.17,1.284 0.232,1.902c0,0.186 0.014,0.403 0.047,0.65c0.03,0.248 0.06,0.449 0.092,0.602c0.031,0.155 0.046,0.311 0.046,0.464l0,0.325c0,0.99 -0.278,1.485 -0.835,1.485c-0.433,-0.247 -1.083,-0.68 -1.948,-1.299c-0.31,-0.186 -0.928,-1.392 -1.855,-3.618l-0.928,-1.393c-0.063,-0.186 -0.464,-0.772 -1.206,-1.763c-0.557,-0.617 -1.454,-1.113 -2.691,-1.484c-0.557,-0.123 -1.516,-0.216 -2.876,-0.278c-0.063,-0.061 -0.497,-0.186 -1.299,-0.371c-1.918,-0.618 -3.433,-0.928 -4.547,-0.928c-2.969,0 -4.486,0.774 -4.546,2.319l-0.186,2.041l-0.185,1.393l0,0.742c-0.371,2.165 -0.557,3.773 -0.557,4.824l0,1.021c0,0.31 0.015,0.634 0.046,0.974c0.031,0.341 0.047,0.712 0.047,1.114l0,1.067l-0.093,3.804c0,2.968 1.051,4.453 3.155,4.453c0.989,0 1.886,-0.279 2.691,-0.835c2.226,-1.545 3.771,-2.844 4.639,-3.897c0.494,-0.679 0.958,-1.02 1.391,-1.02c0.433,0 0.804,0.341 1.113,1.02c0,0.063 0.015,0.186 0.047,0.371c0.031,0.186 0.061,0.464 0.093,0.835c0.03,0.371 0.046,0.712 0.046,1.021l0.186,1.763c0.061,1.175 0,2.876 -0.186,5.103l-0.186,1.67l0.186,1.948c0,0.186 0.015,0.418 0.047,0.697c0.03,0.278 0.076,0.509 0.139,0.695l0,0.278c0,0.434 -0.248,1.207 -0.743,2.32c-0.124,0.31 -0.34,0.464 -0.649,0.464c-0.311,0 -0.835,-0.432 -1.577,-1.298l-1.021,-1.3l-0.742,-2.041l-1.577,-1.577c-0.434,-0.618 -0.774,-0.989 -1.021,-1.114c-0.433,-0.371 -1.392,-0.556 -2.876,-0.556c-1.114,0 -1.795,0.278 -2.042,0.835c0,0.062 -0.062,1.577 -0.185,4.545c0,0.497 -0.171,1.594 -0.511,3.294c-0.34,1.703 -0.51,2.863 -0.51,3.48c0,0.682 0.031,1.361 0.093,2.041l-0.093,2.413c0,0.434 -0.062,1.825 -0.185,4.175c0,0.185 -0.016,0.356 -0.047,0.511c-0.031,0.154 -0.046,0.294 -0.046,0.417c0,0.125 -0.016,0.232 -0.047,0.325c-0.031,0.093 -0.046,0.171 -0.046,0.231l0,0.093c0,2.041 1.856,3.124 5.567,3.248c2.227,0.247 3.587,0.371 4.083,0.371c0.494,0 1.637,-0.247 3.432,-0.742c0.99,-0.247 1.67,-0.558 2.041,-0.929l1.764,-1.67c1.422,-0.927 2.227,-1.545 2.412,-1.855c0.371,-0.68 1.051,-2.35 2.041,-5.01c0.309,-0.866 0.835,-1.3 1.577,-1.3c0.804,0 1.206,0.65 1.206,1.949c0,4.268 -0.124,7.114 -0.371,8.537l-0.278,3.618c-0.31,1.236 -1.021,1.855 -2.134,1.855c-0.185,0 -1.918,-0.341 -5.195,-1.02c-1.671,0.248 -2.661,0.371 -2.97,0.371c-0.062,0 -0.264,-0.016 -0.602,-0.046c-0.341,-0.032 -0.882,-0.062 -1.624,-0.094c-0.743,-0.03 -1.547,-0.046 -2.413,-0.046l-6.866,0.279c-0.185,0 -0.696,-0.033 -1.531,-0.093c-0.835,-0.063 -1.377,-0.093 -1.623,-0.093l-0.649,0c-2.042,0 -4.239,0.03 -6.588,0.093l-3.99,0.185c-1.052,0 -1.578,-0.308 -1.578,-0.927c0,-0.803 0.371,-1.422 1.114,-1.856c0.803,-0.432 1.485,-0.742 2.042,-0.928c1.05,-1.298 1.7,-2.195 1.948,-2.691c0.123,-0.617 0.278,-1.67 0.464,-3.154l0.278,-2.691c0,-0.308 -0.016,-0.942 -0.047,-1.902c-0.031,-0.958 -0.046,-1.562 -0.046,-1.81l0,-3.339c-0.062,-0.68 -0.093,-1.299 -0.093,-1.856l0.093,-0.928l0,-0.742c0,-4.083 0.154,-6.773 0.464,-8.072c-0.062,-0.618 -0.125,-1.516 -0.185,-2.691c-0.063,-1.174 -0.063,-2.505 0,-3.99l0,-2.597l0.185,-3.991c0.123,-1.73 0.309,-3.37 0.557,-4.917l-0.65,-2.876c-0.371,-1.979 -0.774,-3.278 -1.206,-3.897c-0.804,-1.174 -2.226,-2.412 -4.268,-3.711c-0.247,-0.186 -0.371,-0.495 -0.371,-0.929c0,-1.299 0.896,-1.948 2.691,-1.948" style="fill:#fff;fill-rule:nonzero;"/></g><g transform="matrix(0.597505,0,0,0.597505,202.039,28.5265)"><path d="M0,-4.359l3.063,0c0.802,0 1.823,-0.371 3.061,-1.114c2.041,-1.299 3.463,-2.505 4.268,-3.618c0.742,-0.989 1.267,-2.257 1.577,-3.804c0.061,-0.31 0.107,-0.604 0.139,-0.882c0.031,-0.278 0.078,-0.51 0.139,-0.695c0.062,-0.187 0.107,-0.356 0.14,-0.511c0.03,-0.153 0.046,-0.263 0.046,-0.325l0,-0.186c0,-0.679 -0.155,-1.855 -0.464,-3.525c-0.124,-0.432 -0.279,-1.113 -0.464,-2.041c-0.247,-1.485 -1.299,-3.063 -3.154,-4.733c-1.053,-1.421 -1.856,-2.349 -2.413,-2.783c-1.113,-0.742 -2.226,-1.113 -3.34,-1.113l-1.763,0.185c-1.732,0.311 -2.66,0.527 -2.783,0.65c-0.557,0.496 -1.114,1.702 -1.67,3.618c-0.496,1.671 -0.742,2.599 -0.742,2.784l0.278,2.876l-0.093,3.526l0.186,2.042l0,1.298c0,1.61 -0.032,2.63 -0.093,3.062c-0.063,0.125 -0.093,0.278 -0.093,0.464c0.123,0.99 0.216,1.762 0.279,2.319c0.185,1.176 0.431,1.918 0.742,2.228c0.246,0.185 1.299,0.278 3.154,0.278m-14.288,-28.949l2.69,0l3.897,-0.186c0.371,0 1.19,0.078 2.459,0.233c1.267,0.155 2.088,0.231 2.459,0.231c0.308,0 0.556,-0.03 0.742,-0.093c1.422,-0.185 2.505,-0.278 3.247,-0.278c1.113,0 2.752,0.155 4.918,0.464c0.123,0.062 0.293,0.109 0.51,0.14c0.217,0.032 0.386,0.045 0.511,0.045c2.597,0.372 4.143,0.712 4.638,1.021c3.155,2.352 5.257,4.361 6.31,6.031c0.556,0.928 1.051,2.166 1.484,3.712l0.742,1.577c0.495,1.114 0.743,2.475 0.743,4.082c0,2.166 -0.557,4.424 -1.67,6.774c-0.371,0.804 -1.146,2.01 -2.32,3.618c-0.185,0.185 -1.299,0.867 -3.34,2.042c-1.361,0.805 -2.042,1.67 -2.042,2.598c1.361,1.361 2.228,2.258 2.599,2.69c0.371,0.619 0.773,1.98 1.206,4.083c0.246,1.176 0.71,2.412 1.392,3.711c0.185,0.619 0.431,1.577 0.742,2.876l0.464,2.413c0.185,2.289 0.679,4.144 1.484,5.566c0.309,0.496 0.742,0.835 1.299,1.021c0.124,0.062 0.866,0.185 2.228,0.371c1.236,0.125 1.855,0.774 1.855,1.948c0,0.682 -0.248,1.269 -0.742,1.764c-0.186,0.309 -1.146,0.866 -2.877,1.67c-3.154,1.547 -5.228,2.319 -6.216,2.319c-0.682,0 -1.299,-0.371 -1.855,-1.113c0,-0.186 -0.311,-1.113 -0.929,-2.783c-0.124,-0.371 -0.264,-0.789 -0.417,-1.253c-0.155,-0.464 -0.341,-1.021 -0.557,-1.67c-0.218,-0.65 -0.387,-1.16 -0.511,-1.531c0,-0.061 -0.031,-0.201 -0.092,-0.417c-0.063,-0.217 -0.124,-0.588 -0.186,-1.114c-0.062,-0.525 -0.124,-1.005 -0.185,-1.438l-0.835,-3.526l-0.743,-4.639l-0.556,-2.227c-0.682,-2.473 -1.269,-4.051 -1.763,-4.732c-0.619,-0.865 -1.732,-1.793 -3.34,-2.783c-1.052,-0.618 -2.383,-0.928 -3.99,-0.928c-0.682,0 -1.346,0.31 -1.995,0.928c-0.649,0.619 -0.974,1.268 -0.974,1.948l0.093,3.433c0,0.186 -0.032,0.372 -0.093,0.557c0,0.124 -0.047,0.773 -0.139,1.948c-0.093,1.176 -0.202,2.289 -0.325,3.34l-0.278,3.063c0.123,2.226 0.525,5.009 1.206,8.349c0.371,0.805 0.958,1.393 1.763,1.764c2.349,1.113 3.525,2.072 3.525,2.876c0,0.742 -0.371,1.145 -1.113,1.206c-0.063,0 -1.052,0.062 -2.969,0.186l-2.969,-0.093l-1.856,0c-2.165,-0.309 -3.279,-0.464 -3.34,-0.464c-0.248,0 -0.99,0.155 -2.226,0.464l-2.876,0c-1.176,0.06 -1.764,-0.494 -1.764,-1.67c0,-0.557 0.34,-1.113 1.021,-1.67c1.114,-0.804 1.886,-1.516 2.32,-2.135c0.928,-1.236 1.514,-2.194 1.762,-2.876c0.247,-0.742 0.372,-1.638 0.372,-2.69l0.092,-8.073l0,-1.531c0,-0.524 0.015,-1.02 0.046,-1.484c0.031,-0.464 0.062,-0.896 0.093,-1.299c0.031,-0.401 0.047,-0.727 0.047,-0.975l0,-0.695c0,-0.278 -0.016,-0.571 -0.047,-0.882c-0.031,-0.308 -0.046,-0.649 -0.046,-1.02c-0.062,-1.051 -0.093,-2.783 -0.093,-5.196l0.093,-3.712l-0.185,-4.916l0,-4.455l-0.093,-0.835c0,-0.431 -0.016,-0.958 -0.047,-1.577c-0.031,-0.617 -0.062,-1.097 -0.093,-1.438c-0.031,-0.339 -0.046,-0.603 -0.046,-0.788c0,-0.433 -0.218,-1.639 -0.649,-3.619c0,-0.186 -0.218,-1.174 -0.65,-2.969c-0.248,-0.617 -0.867,-1.236 -1.855,-1.856c-0.928,-0.556 -1.393,-1.082 -1.393,-1.578c0,-0.617 0.124,-1.051 0.372,-1.299c0.372,-0.371 0.989,-0.556 1.856,-0.556" style="fill:#fff;fill-rule:nonzero;"/></g><g transform="matrix(0.597505,0,0,0.597505,229.923,28.5265)"><path d="M0,-4.359l3.063,0c0.802,0 1.823,-0.371 3.061,-1.114c2.041,-1.299 3.463,-2.505 4.268,-3.618c0.742,-0.989 1.267,-2.257 1.577,-3.804c0.061,-0.31 0.107,-0.604 0.139,-0.882c0.031,-0.278 0.078,-0.51 0.139,-0.695c0.062,-0.187 0.107,-0.356 0.14,-0.511c0.03,-0.153 0.046,-0.263 0.046,-0.325l0,-0.186c0,-0.679 -0.155,-1.855 -0.464,-3.525c-0.124,-0.432 -0.279,-1.113 -0.464,-2.041c-0.247,-1.485 -1.299,-3.063 -3.154,-4.733c-1.053,-1.421 -1.856,-2.349 -2.413,-2.783c-1.113,-0.742 -2.226,-1.113 -3.34,-1.113l-1.763,0.185c-1.732,0.311 -2.66,0.527 -2.783,0.65c-0.557,0.496 -1.114,1.702 -1.67,3.618c-0.496,1.671 -0.742,2.599 -0.742,2.784l0.278,2.876l-0.093,3.526l0.186,2.042l0,1.298c0,1.61 -0.032,2.63 -0.093,3.062c-0.063,0.125 -0.093,0.278 -0.093,0.464c0.123,0.99 0.216,1.762 0.279,2.319c0.185,1.176 0.431,1.918 0.742,2.228c0.246,0.185 1.299,0.278 3.154,0.278m-14.288,-28.949l2.69,0l3.897,-0.186c0.371,0 1.19,0.078 2.459,0.233c1.267,0.155 2.088,0.231 2.459,0.231c0.308,0 0.556,-0.03 0.742,-0.093c1.422,-0.185 2.505,-0.278 3.247,-0.278c1.113,0 2.752,0.155 4.918,0.464c0.123,0.062 0.293,0.109 0.51,0.14c0.217,0.032 0.386,0.045 0.511,0.045c2.597,0.372 4.143,0.712 4.638,1.021c3.155,2.352 5.257,4.361 6.31,6.031c0.556,0.928 1.051,2.166 1.484,3.712l0.742,1.577c0.495,1.114 0.743,2.475 0.743,4.082c0,2.166 -0.557,4.424 -1.67,6.774c-0.371,0.804 -1.146,2.01 -2.32,3.618c-0.185,0.185 -1.299,0.867 -3.34,2.042c-1.361,0.805 -2.042,1.67 -2.042,2.598c1.361,1.361 2.228,2.258 2.599,2.69c0.371,0.619 0.773,1.98 1.206,4.083c0.246,1.176 0.71,2.412 1.392,3.711c0.185,0.619 0.431,1.577 0.742,2.876l0.464,2.413c0.185,2.289 0.679,4.144 1.484,5.566c0.309,0.496 0.742,0.835 1.299,1.021c0.124,0.062 0.866,0.185 2.228,0.371c1.236,0.125 1.855,0.774 1.855,1.948c0,0.682 -0.248,1.269 -0.742,1.764c-0.186,0.309 -1.146,0.866 -2.877,1.67c-3.154,1.547 -5.228,2.319 -6.216,2.319c-0.682,0 -1.299,-0.371 -1.855,-1.113c0,-0.186 -0.311,-1.113 -0.929,-2.783c-0.124,-0.371 -0.264,-0.789 -0.417,-1.253c-0.155,-0.464 -0.341,-1.021 -0.557,-1.67c-0.218,-0.65 -0.387,-1.16 -0.511,-1.531c0,-0.061 -0.031,-0.201 -0.092,-0.417c-0.063,-0.217 -0.124,-0.588 -0.186,-1.114c-0.062,-0.525 -0.124,-1.005 -0.185,-1.438l-0.835,-3.526l-0.743,-4.639l-0.556,-2.227c-0.682,-2.473 -1.269,-4.051 -1.763,-4.732c-0.619,-0.865 -1.732,-1.793 -3.34,-2.783c-1.052,-0.618 -2.383,-0.928 -3.99,-0.928c-0.682,0 -1.346,0.31 -1.995,0.928c-0.649,0.619 -0.974,1.268 -0.974,1.948l0.093,3.433c0,0.186 -0.032,0.372 -0.093,0.557c0,0.124 -0.047,0.773 -0.139,1.948c-0.093,1.176 -0.202,2.289 -0.325,3.34l-0.278,3.063c0.123,2.226 0.525,5.009 1.206,8.349c0.371,0.805 0.958,1.393 1.763,1.764c2.349,1.113 3.525,2.072 3.525,2.876c0,0.742 -0.371,1.145 -1.113,1.206c-0.063,0 -1.052,0.062 -2.969,0.186l-2.969,-0.093l-1.856,0c-2.165,-0.309 -3.279,-0.464 -3.34,-0.464c-0.248,0 -0.99,0.155 -2.226,0.464l-2.876,0c-1.176,0.06 -1.764,-0.494 -1.764,-1.67c0,-0.557 0.34,-1.113 1.021,-1.67c1.114,-0.804 1.886,-1.516 2.32,-2.135c0.928,-1.236 1.514,-2.194 1.762,-2.876c0.247,-0.742 0.372,-1.638 0.372,-2.69l0.092,-8.073l0,-1.531c0,-0.524 0.015,-1.02 0.046,-1.484c0.031,-0.464 0.062,-0.896 0.093,-1.299c0.031,-0.401 0.047,-0.727 0.047,-0.975l0,-0.695c0,-0.278 -0.016,-0.571 -0.047,-0.882c-0.031,-0.308 -0.046,-0.649 -0.046,-1.02c-0.062,-1.051 -0.093,-2.783 -0.093,-5.196l0.093,-3.712l-0.185,-4.916l0,-4.455l-0.093,-0.835c0,-0.431 -0.016,-0.958 -0.047,-1.577c-0.031,-0.617 -0.062,-1.097 -0.093,-1.438c-0.031,-0.339 -0.046,-0.603 -0.046,-0.788c0,-0.433 -0.218,-1.639 -0.649,-3.619c0,-0.186 -0.218,-1.174 -0.65,-2.969c-0.248,-0.617 -0.867,-1.236 -1.855,-1.856c-0.928,-0.556 -1.393,-1.082 -1.393,-1.578c0,-0.617 0.124,-1.051 0.372,-1.299c0.372,-0.371 0.989,-0.556 1.856,-0.556" style="fill:#fff;fill-rule:nonzero;"/></g><g transform="matrix(0.597505,0,0,0.597505,259.639,34.7915)"><path d="M0,-25.33c-0.187,0 -0.341,0.062 -0.465,0.186l-0.928,1.578c-0.68,1.174 -1.298,2.257 -1.855,3.247c-0.928,2.722 -1.392,4.671 -1.392,5.844c0,0.682 0.093,1.239 0.279,1.671c0.371,0.867 1.607,1.516 3.711,1.949c0.557,0.062 0.989,0.155 1.299,0.278c0.803,0.248 1.515,0.371 2.134,0.371c0.803,0 1.206,-0.432 1.206,-1.299c0,-3.341 -0.403,-6.309 -1.206,-8.907c-1.053,-3.278 -1.98,-4.918 -2.783,-4.918m13.175,43.979c-0.125,0 -0.248,0.033 -0.371,0.093c-1.239,0.432 -2.352,0.65 -3.34,0.65c-0.99,0 -1.485,-0.311 -1.485,-0.928c0,-0.432 0.432,-0.989 1.298,-1.67c1.857,-1.484 2.785,-3.186 2.785,-5.103c-0,-1.051 -0.279,-2.443 -0.835,-4.175c0,-0.062 -0.079,-0.263 -0.233,-0.604c-0.155,-0.339 -0.371,-0.835 -0.649,-1.484c-0.279,-0.65 -0.573,-1.346 -0.881,-2.088c-0.187,-0.371 -0.682,-2.257 -1.485,-5.659c-0.805,-2.288 -2.32,-3.434 -4.546,-3.434l-2.969,-0.742c-0.99,-0.371 -2.166,-0.557 -3.527,-0.557c-2.103,0 -3.68,0.279 -4.731,0.835c-0.805,0.248 -1.547,1.517 -2.227,3.805c-0.372,1.609 -0.774,2.753 -1.207,3.433c-0.866,1.423 -1.454,2.69 -1.762,3.804c0,0.062 -0.125,0.711 -0.371,1.949c-0.311,2.351 -0.464,3.618 -0.464,3.803c0,1.239 0.153,2.104 0.464,2.598l0.371,0.371c0.247,0.248 0.618,0.649 1.113,1.207c0.494,0.557 1.052,1.145 1.67,1.763c0.681,0.68 1.021,1.145 1.021,1.391c0,0.805 -0.743,1.206 -2.227,1.206c-0.805,0 -1.795,-0.032 -2.969,-0.092l-3.34,0l-4.083,0.092c-1.484,0 -2.226,-0.464 -2.226,-1.391c0,-0.557 0.153,-0.928 0.464,-1.114l1.762,-1.391c0.371,-0.247 0.99,-1.393 1.856,-3.434c0.061,-0.185 0.588,-0.927 1.578,-2.226c0.246,-0.309 0.68,-1.67 1.299,-4.082c0.185,-0.31 0.958,-2.228 2.319,-5.753l1.484,-4.082c1.485,-3.958 3.062,-8.258 4.733,-12.898c0,-0.123 0.106,-0.448 0.324,-0.973c0.216,-0.526 0.571,-1.407 1.067,-2.645c0.495,-1.236 0.989,-2.474 1.485,-3.712c1.545,-3.711 2.473,-6.092 2.783,-7.143c0.989,-2.97 1.701,-6.155 2.134,-9.558c0.371,-2.287 1.114,-3.433 2.227,-3.433c0.371,0 0.803,0.527 1.299,1.578c0.309,0.619 1.329,3.526 3.062,8.721c-0,0.063 0.525,1.176 1.577,3.341c0.061,0.434 0.247,1.299 0.557,2.598c0.061,0.185 0.139,0.464 0.232,0.835c0.093,0.371 0.231,0.882 0.417,1.531c0.185,0.649 0.34,1.222 0.464,1.716c0.124,0.496 0.65,1.702 1.578,3.619l2.505,6.495l0.835,3.247l1.577,5.103c0.557,1.795 1.299,4.207 2.226,7.237c0.433,1.113 1.145,3.309 2.135,6.588c0.928,2.969 2.009,5.135 3.247,6.495c0.186,0.061 0.896,0.588 2.134,1.577c0.371,0.31 0.557,0.742 0.557,1.299c-0,0.867 -0.588,1.391 -1.763,1.577l-5.289,0.186l-2.319,0.185c-0.186,0 -1.299,-0.185 -3.34,-0.557" style="fill:#fff;fill-rule:nonzero;"/></g><g transform="matrix(0.597505,0,0,0.597505,13.8538,45.8788)"><path d="M0,-62.442c0.68,0 1.422,0.031 2.227,0.093l1.021,0c0.742,0.062 2.009,0.093 3.804,0.093l2.691,-0l4.174,-0.093c1.36,0 2.042,0.402 2.042,1.206c-0,0.496 -0.155,0.835 -0.464,1.02l-1.856,1.485c-1.609,1.299 -2.412,3.836 -2.412,7.608c0,0.434 0.093,1.888 0.278,4.36l0,1.486c0,1.176 -0.062,2.319 -0.185,3.432c-0.311,2.475 -0.464,3.774 -0.464,3.897c0,1.918 1.392,3.186 4.175,3.805c0.928,0.185 2.844,0.278 5.753,0.278l3.34,-0c2.659,-0 4.484,-0.123 5.474,-0.371l5.196,0.649c1.051,0.186 2.628,-0.247 4.732,-1.299c1.051,-0.495 1.577,-1.237 1.577,-2.227c0,-0.309 -0.062,-0.896 -0.186,-1.763c0,-0.308 -0.032,-0.556 -0.092,-0.742l0.092,-0.835l0,-3.989l0.279,-4.362c-0.186,-1.05 -0.279,-1.73 -0.279,-2.041c0,-0.679 0.031,-1.298 0.093,-1.855c0.061,-0.247 0.093,-0.557 0.093,-0.928c0,-1.794 -0.434,-3.308 -1.299,-4.547c-0.185,-0.308 -0.649,-0.587 -1.391,-0.835c-1.114,-0.371 -1.671,-0.895 -1.671,-1.577c-0,-0.802 0.618,-1.206 1.856,-1.206l2.041,-0c0.246,-0 0.68,-0.014 1.299,-0.047c0.618,-0.03 1.051,-0.046 1.299,-0.046c0.061,-0 0.154,0.016 0.278,0.046c0.123,0.033 0.293,0.063 0.511,0.093c0.216,0.032 0.448,0.047 0.695,0.047c0.124,0.062 0.279,0.093 0.464,0.093c0.31,-0 1.052,-0.077 2.228,-0.233c1.173,-0.153 1.948,-0.231 2.319,-0.231c2.783,-0 4.175,0.341 4.175,1.02c-0,0.248 -0.99,1.269 -2.969,3.062c-1.053,1.053 -1.577,3.465 -1.577,7.237c-0,0.496 0.03,0.898 0.093,1.206c0.06,0.557 0.092,1.021 0.092,1.392c-0,0.248 -0.015,0.682 -0.046,1.299c-0.032,0.619 -0.046,0.99 -0.046,1.114c-0,0.804 0.123,2.846 0.371,6.123l-0.186,1.855c-0,1.176 -0.032,2.506 -0.093,3.991c-0,0.371 -0.062,1.299 -0.185,2.783c-0.063,0.185 -0.093,0.433 -0.093,0.742c0,0.496 0.093,1.825 0.278,3.99l0,1.114l-0.092,3.339l-0.093,10.949c-0.125,3.279 0.494,5.63 1.855,7.051l0.186,0.093c0.185,0.125 0.401,0.294 0.649,0.51c0.247,0.218 0.526,0.45 0.835,0.696c0.742,0.557 1.114,1.053 1.114,1.485c0,0.619 -0.433,0.927 -1.299,0.927c-0.743,-0 -1.64,-0.092 -2.691,-0.278l-8.907,-0c-1.855,0.123 -2.908,0.186 -3.154,0.186c-0.805,-0 -1.207,-0.279 -1.207,-0.835c0,-0.186 0.061,-0.339 0.185,-0.464l2.692,-2.505c0.742,-0.618 1.236,-1.948 1.484,-3.99c0.061,-0.803 0.153,-2.721 0.278,-5.752l0.093,-1.114c-0.31,-1.113 -0.464,-1.762 -0.464,-1.948l0.093,-4.268c-0,-0.309 0.015,-0.603 0.047,-0.882c0.03,-0.279 0.06,-0.494 0.093,-0.65c0.03,-0.153 0.046,-0.308 0.046,-0.463l-0,-0.325c-0,-2.536 -0.248,-4.143 -0.743,-4.825c-0.681,-0.865 -2.504,-1.329 -5.474,-1.391l-1.577,-0.093l-0.835,-0c-2.846,0.125 -4.361,0.185 -4.547,0.185c-0.062,-0 -0.835,-0.06 -2.319,-0.185l-0.835,-0c-0.063,-0 -0.186,0.016 -0.371,0.047c-0.186,0.031 -0.496,0.062 -0.928,0.092c-0.433,0.032 -0.867,0.046 -1.299,0.046l-0.278,-0c-0.434,-0 -1.485,-0.123 -3.155,-0.371c-0.867,-0.123 -1.609,-0.185 -2.227,-0.185c-3.402,-0 -5.32,1.145 -5.752,3.433l-0,3.155l-0.093,2.319c-0,0.185 0.014,0.496 0.046,0.928c0.031,0.433 0.061,1.037 0.093,1.809c0.03,0.775 0.047,1.531 0.047,2.274l-0,1.02c-0,0.186 -0.093,1.113 -0.279,2.783c0.123,1.485 0.186,2.259 0.186,2.32c0.803,2.226 1.36,3.773 1.67,4.639c1.36,1.547 2.287,2.505 2.783,2.876c0.928,0.619 1.392,1.114 1.392,1.485c-0,0.433 -0.31,0.649 -0.928,0.649l-8.35,-0c-0.496,-0 -1.114,-0.06 -1.856,-0.185c-0.185,-0.061 -0.556,-0.093 -1.114,-0.093c-0.371,-0 -1.191,0.047 -2.458,0.139c-1.269,0.093 -2.088,0.139 -2.459,0.139c-2.722,-0 -4.082,-0.524 -4.082,-1.577c-0,-0.68 0.71,-1.206 2.134,-1.577c2.102,-0.432 3.493,-1.329 4.175,-2.691c0.309,-0.866 0.525,-2.072 0.649,-3.619c0.061,-0.556 0.093,-2.565 0.093,-6.03c-0,-0.124 -0.062,-1.36 -0.185,-3.712c-0.063,-0.803 -0.093,-1.545 -0.093,-2.227c-0,-0.246 0.154,-2.473 0.464,-6.68c-0.125,-2.598 -0.186,-4.268 -0.186,-5.01c-0,-1.175 0.186,-2.814 0.557,-4.918c0.061,-0.123 0.093,-0.401 0.093,-0.835c-0,-0.432 -0.032,-0.835 -0.093,-1.206c-0.063,-1.051 -0.093,-2.35 -0.093,-3.896c-0,0.124 0.015,0.015 0.046,-0.326c0.031,-0.339 0.047,-0.664 0.047,-0.973l-0,-3.063l-0.093,-2.69l-0,-2.041c-0,-3.216 -1.361,-5.257 -4.083,-6.124c-0.99,-0.246 -1.484,-0.803 -1.484,-1.67c-0,-0.865 0.835,-1.299 2.505,-1.299" style="fill:#fff;fill-rule:nonzero;"/></g><g transform="matrix(0.597505,0,0,0.597505,-49.7733,-227.22)"><g transform="matrix(1,0,0,1,186.459,442.571)"><path d="M0,-35.07c-0.771,0.077 -1.502,0.346 -2.195,0.809c-0.887,0.577 -1.618,1.059 -2.196,1.444c-0.963,0.963 -1.868,2.003 -2.715,3.119c-0.27,0.31 -0.751,1.137 -1.445,2.485l-0.808,1.445l-0.463,1.213c-0.038,0.115 -0.288,0.714 -0.751,1.791c-0.115,0.463 -0.173,1.291 -0.173,2.484c-0,0.578 0.019,1.098 0.058,1.561l-0,1.733l-0.116,3.697c-0,0.194 0.289,1.484 0.867,3.871c0.192,0.694 0.423,1.502 0.693,2.427c0.038,0.154 0.616,0.848 1.733,2.08c0.463,0.809 0.828,1.349 1.098,1.617c0.462,0.31 0.982,0.675 1.56,1.099c1.232,0.924 2.118,1.482 2.658,1.675c0.384,0.154 1.232,0.289 2.542,0.404c0.269,0 0.529,0.011 0.78,0.029c0.25,0.02 0.453,0.039 0.607,0.058c0.153,0.021 0.25,0.029 0.289,0.029c1.155,0 2.022,-0.095 2.6,-0.289c0.461,-0.192 0.981,-0.5 1.559,-0.925c0.385,-0.307 1.252,-0.885 2.601,-1.733c0.423,-0.308 0.885,-0.885 1.386,-1.732c-0,-0.078 0.116,-0.251 0.347,-0.521c0.616,-0.847 1.579,-2.484 2.889,-4.911c0.231,-0.809 0.366,-1.579 0.404,-2.312c-0,-0.191 0.009,-0.365 0.029,-0.519c0.019,-0.153 0.029,-0.25 0.029,-0.289l-0,-4.652c-0,-0.133 -0.01,-0.335 -0.029,-0.606c-0.02,-0.269 -0.029,-0.538 -0.029,-0.809c-0.038,-0.268 -0.068,-0.711 -0.087,-1.329c-0.02,-0.615 -0.028,-1.078 -0.028,-1.386c-0.078,-0.154 -0.194,-0.558 -0.347,-1.213c-0.347,-1.54 -1.002,-3.12 -1.965,-4.738c-0.424,-0.809 -1.425,-2.08 -3.004,-3.813c-0.693,-0.847 -1.194,-1.425 -1.502,-1.733c-0.27,-0.27 -0.925,-0.521 -1.965,-0.751c-0.038,-0 -0.135,-0.02 -0.288,-0.058c-0.155,-0.038 -0.252,-0.077 -0.29,-0.116c-0.54,-0.193 -1.367,-0.308 -2.483,-0.347l-1.85,-0.288Zm3.236,-2.658c1.771,-0 3.293,0.231 4.564,0.693c0.886,0.347 1.945,1.002 3.178,1.965c0.077,0.077 0.635,0.481 1.675,1.213l0.174,0.173c0.116,0.078 0.289,0.222 0.52,0.433c0.231,0.212 0.481,0.453 0.751,0.722c0.539,0.463 1.04,0.925 1.502,1.388c0.153,0.154 0.384,0.481 0.693,0.981l1.04,1.734c0.925,1.425 1.464,2.273 1.619,2.542c0.037,0.039 0.173,0.578 0.404,1.618c0.269,0.655 0.539,1.406 0.809,2.253c-0,0.617 0.019,1.097 0.058,1.444l0.173,2.311c-0,0.194 -0.058,0.887 -0.173,2.081l0.115,2.599c0.037,0.463 -0.039,1.155 -0.231,2.08c-0.116,0.463 -0.578,1.541 -1.387,3.236l-0.925,1.848l-0.866,1.041l-0.636,0.751l-0.808,0.982c-0.578,0.693 -1.696,1.772 -3.352,3.235c-3.197,2.043 -6.817,3.063 -10.862,3.063c-2.426,-0 -4.275,-0.194 -5.546,-0.578c-4.314,-1.271 -7.589,-4.063 -9.822,-8.378c-1.118,-2.157 -1.907,-3.986 -2.369,-5.489c-0.346,-1.078 -0.597,-2.117 -0.751,-3.12l-0.058,-0.347c0,-0.23 -0.01,-0.606 -0.029,-1.126c-0.02,-0.52 -0.029,-1.069 -0.029,-1.646c0,-0.116 -0.01,-0.27 -0.029,-0.463c-0.02,-0.191 -0.029,-0.365 -0.029,-0.519l-0.058,-0.174c-0,-1.424 0.309,-3.062 0.926,-4.911c0.268,-0.809 0.981,-2.196 2.137,-4.16c0.076,-0.116 0.789,-1.213 2.137,-3.294c1.695,-1.809 3.814,-3.293 6.356,-4.448c1.771,-0.77 2.947,-1.214 3.524,-1.329c0.116,-0.038 0.925,-0.115 2.427,-0.231c1.656,-0.116 2.716,-0.173 3.178,-0.173" style="fill:#fff;fill-rule:nonzero;"/></g><g transform="matrix(1,0,0,1,173.051,455.493)"><path d="M0,-5.151l3.74,0.075l3.18,0l3.18,0.152c0.749,-0 1.871,-0.101 3.367,-0.303c0.374,-0.05 0.871,-0.076 1.496,-0.076c0.748,-0 2.151,0.038 4.208,0.114c2.058,0.075 3.335,0.113 3.835,0.113c0.497,-0 1.619,-0.05 3.366,-0.151c1.745,-0.101 2.867,-0.152 3.367,-0.152c1.744,-0 3.18,0.303 4.302,0.91c0.497,0.202 0.748,0.404 0.748,0.605c0,0.051 -0.312,0.455 -0.935,1.213c-0.251,1.363 -0.438,2.071 -0.561,2.121c-0.626,0.404 -1.248,0.606 -1.87,0.606c-0.374,-0 -1.403,-0.063 -3.087,-0.189c-1.683,-0.126 -2.776,-0.189 -3.273,-0.189c-1.622,-0 -3.305,0.075 -5.05,0.226c-0.125,0.052 -0.313,0.076 -0.561,0.076c-0.252,-0 -0.438,0.027 -0.561,0.076l-5.238,-0.303l-3.553,0.227c-0.499,-0 -0.967,-0.011 -1.403,-0.038c-0.438,-0.024 -0.78,-0.05 -1.028,-0.075c-0.252,-0.025 -0.439,-0.038 -0.562,-0.038l-3.741,0.227l-2.244,0.076c-0.251,0.051 -0.748,0.076 -1.496,0.076c-0.874,-0 -1.622,-0.201 -2.244,-0.607c-0.126,-0.1 -0.188,-0.201 -0.188,-0.302l0.562,-1.97l0.56,-2.046c0.249,-0.201 0.81,-0.352 1.684,-0.454" style="fill:#fff;fill-rule:nonzero;"/></g><g transform="matrix(1,0,0,1,172.595,400.153)"><path d="M0,-4.007l3.74,0.059l3.18,-0l3.18,0.118c0.749,-0 1.871,-0.078 3.367,-0.237c0.374,-0.038 0.871,-0.058 1.496,-0.058c0.748,-0 2.151,0.029 4.208,0.088c2.058,0.059 3.335,0.089 3.835,0.089c0.497,-0 1.619,-0.039 3.366,-0.119c1.745,-0.078 2.867,-0.117 3.367,-0.117c1.744,-0 3.18,0.236 4.302,0.707c0.497,0.157 0.748,0.315 0.748,0.471c0,0.04 -0.312,0.354 -0.935,0.943c-0.251,1.061 -0.438,1.612 -0.561,1.651c-0.626,0.314 -1.248,0.47 -1.87,0.47c-0.374,-0 -1.403,-0.048 -3.087,-0.146c-1.683,-0.098 -2.776,-0.148 -3.273,-0.148c-1.622,-0 -3.305,0.059 -5.05,0.177c-0.125,0.039 -0.313,0.059 -0.561,0.059c-0.252,-0 -0.438,0.02 -0.561,0.058l-5.238,-0.235l-3.553,0.177c-0.499,-0 -0.967,-0.009 -1.403,-0.029c-0.438,-0.02 -0.78,-0.04 -1.028,-0.059c-0.252,-0.02 -0.439,-0.03 -0.562,-0.03l-3.741,0.176l-2.244,0.06c-0.251,0.039 -0.748,0.059 -1.496,0.059c-0.874,-0 -1.622,-0.157 -2.244,-0.472c-0.126,-0.078 -0.188,-0.156 -0.188,-0.235l0.562,-1.533l0.56,-1.59c0.249,-0.158 0.81,-0.275 1.684,-0.354" style="fill:#fff;fill-rule:nonzero;"/></g></g><g transform="matrix(0.597505,0,0,0.597505,80.2614,45.7558)"><path d="M0,-62.134l6.309,0.186c1.051,-0.124 2.721,-0.216 5.01,-0.279l2.598,-0.093c1.423,-0.123 2.134,0.341 2.134,1.392c0,0.434 -0.186,0.742 -0.557,0.929l-1.113,0.649l-1.206,1.577c-0.619,0.619 -0.96,1.083 -1.021,1.392c-1.175,3.154 -1.762,6.959 -1.762,11.412c0,2.846 0.092,5.66 0.278,8.443l-0.093,4.082l0,8.815c0,0.248 -0.093,1.02 -0.278,2.32c-0.063,0.31 -0.093,0.866 -0.093,1.67c0,0.619 0.093,1.484 0.278,2.598c0.061,1.238 0.154,2.103 0.279,2.597l0.185,2.414c0,0.432 -0.125,1.267 -0.371,2.504l0,0.743c0,2.908 1.452,4.36 4.361,4.36c0.618,0 1.701,-0.123 3.248,-0.371c1.173,0 2.442,-0.03 3.803,-0.093l0.928,-0.093l2.412,0c0.557,0 1.485,-0.742 2.784,-2.226c1.67,-1.979 2.628,-3.247 2.876,-3.804c1.299,-2.474 2.196,-3.712 2.691,-3.712c0.679,0 0.959,0.434 0.835,1.299l-0.279,3.99l0.279,3.247l0,1.114l0.092,1.577c0,1.485 -0.463,2.475 -1.391,2.969c-0.619,0.124 -1.795,0.186 -3.526,0.186l-2.319,0l-6.217,-0.186c-0.062,0 -0.171,0.016 -0.325,0.046c-0.154,0.033 -0.417,0.063 -0.788,0.093c-0.371,0.032 -0.712,0.047 -1.02,0.047l-0.835,0c-0.991,0.123 -1.764,0.185 -2.321,0.185c-1.361,0 -3.061,-0.125 -5.102,-0.371c-0.742,-0.123 -1.454,-0.185 -2.134,-0.185c-0.928,0 -2.692,0.062 -5.289,0.185c-0.063,0 -0.248,0.032 -0.557,0.093c-0.31,0.063 -0.789,0.153 -1.438,0.278c-0.65,0.124 -1.284,0.247 -1.902,0.372c-0.185,0.06 -0.433,0.092 -0.742,0.092c-1.547,0 -2.32,-0.403 -2.32,-1.206c-0,-0.618 0.278,-1.267 0.835,-1.949c0.556,-0.371 1.144,-0.865 1.763,-1.484c1.608,-1.422 2.505,-3.401 2.691,-5.938c0.185,-1.175 0.339,-3.835 0.464,-7.979l-0,-6.681c-0,-0.432 -0.016,-0.835 -0.047,-1.206c-0.031,-0.371 -0.046,-0.68 -0.046,-0.928l-0,-0.371c-0,-1.546 0.153,-3.401 0.464,-5.567c0.06,-0.123 0.093,-0.464 0.093,-1.021l-0.093,-0.278l-0,-0.835c-0,-0.371 -0.016,-0.757 -0.047,-1.16c-0.031,-0.402 -0.062,-0.865 -0.093,-1.392c-0.031,-0.524 -0.046,-1.004 -0.046,-1.437l-0,-9.742l-0.185,-2.321c-0.063,-0.371 -0.109,-0.942 -0.14,-1.716c-0.031,-0.772 -0.046,-1.376 -0.046,-1.809c-0.31,-0.432 -0.712,-1.113 -1.206,-2.041l-1.02,-1.577c-0.186,-0.186 -0.527,-0.371 -1.021,-0.557c-0.496,-0.247 -1.021,-0.464 -1.578,-0.649c-0.433,-0.247 -0.649,-0.651 -0.649,-1.207c-0,-0.743 0.495,-1.144 1.485,-1.206c0.186,-0.061 0.51,-0.108 0.974,-0.139c0.463,-0.03 0.819,-0.047 1.067,-0.047" style="fill:#fff;fill-rule:nonzero;"/></g><g transform="matrix(0.597505,0,0,0.597505,112.119,8.80938)"><path d="M0,61.67c-0.186,0 -0.371,0.03 -0.557,0.093c-1.732,0.123 -2.66,0.185 -2.783,0.185c-0.371,-0 -0.712,-0.031 -1.021,-0.092c-0.681,-0.063 -1.269,-0.093 -1.763,-0.093l-1.206,0.093l-2.134,-0c-1.424,0.123 -2.134,-0.186 -2.134,-0.928c0,-0.557 0.216,-0.928 0.65,-1.113l2.041,-0.928c0.494,-0.309 1.329,-1.361 2.505,-3.154c1.237,-1.546 1.855,-2.66 1.855,-3.341l0,-0.464c0,-0.246 -0.015,-0.464 -0.046,-0.65c-0.032,-0.185 -0.047,-0.338 -0.047,-0.463l0,-0.464l0.279,-5.475c0,-0.928 0.092,-2.319 0.278,-4.175c0,-0.308 0.031,-0.556 0.093,-0.742l-0.371,-5.011c-0.124,-1.174 -0.217,-2.349 -0.279,-3.525c0,-0.123 -0.742,-1.422 -2.226,-3.897c-0.248,-0.432 -1.299,-2.257 -3.155,-5.474c-0.927,-1.174 -1.577,-2.009 -1.948,-2.505c-1.176,-1.484 -2.042,-2.752 -2.598,-3.805c-0.062,-0.185 -0.681,-1.206 -1.856,-3.061c-1.424,-2.35 -2.351,-3.741 -2.783,-4.175l-1.856,-1.763l-1.669,-1.856l-1.393,-1.206c-1.608,-1.051 -2.475,-1.638 -2.598,-1.763c-0.248,-0.246 -0.371,-0.557 -0.371,-0.928c0,-0.246 0.123,-0.494 0.371,-0.742c0.061,-0.061 1.299,-0.154 3.711,-0.278c1.857,-0.186 2.877,-0.279 3.063,-0.279c0.371,-0 1.266,0.125 2.69,0.372c0.246,-0 0.82,-0.047 1.717,-0.14c0.895,-0.093 1.469,-0.139 1.716,-0.139c0.061,-0 0.185,0.016 0.371,0.046c0.186,0.032 0.448,0.063 0.789,0.093c0.339,0.032 0.664,0.047 0.975,0.047c0.123,0.062 0.835,0.093 2.133,0.093c1.793,-0 2.691,0.496 2.691,1.484c0,0.371 -0.218,0.774 -0.65,1.206l-1.391,1.577c-0.557,0.557 -0.835,1.206 -0.835,1.948c0,0.868 0.988,2.816 2.969,5.846c1.174,1.981 1.917,3.094 2.226,3.34c0.062,0.062 0.186,0.185 0.371,0.371c0.186,0.186 0.403,0.403 0.651,0.65c0.246,0.247 0.494,0.496 0.742,0.743c0.308,0.309 0.803,1.083 1.484,2.319l1.299,2.041c0.803,1.732 1.392,2.598 1.763,2.598c1.793,-0 4.05,-2.844 6.773,-8.537l1.113,-2.226c0.866,-1.113 1.638,-2.102 2.32,-2.969c0.742,-0.928 1.113,-1.793 1.113,-2.597c0,-0.867 -0.341,-1.825 -1.02,-2.877l-0.186,-0.186c-0.063,-0.123 -0.186,-0.278 -0.371,-0.464c-0.186,-0.185 -0.341,-0.371 -0.464,-0.556l-0.278,-0.186c-0.125,-0.061 -0.311,-0.2 -0.557,-0.417c-0.248,-0.217 -0.526,-0.448 -0.835,-0.696c-0.248,-0.186 -0.371,-0.494 -0.371,-0.928c0,-0.988 0.896,-1.484 2.69,-1.484l0.928,-0c0.371,-0 0.773,0.015 1.206,0.045c0.433,0.033 0.774,0.063 1.021,0.093c0.247,0.032 0.432,0.047 0.557,0.047c0.186,-0 0.835,-0.093 1.949,-0.278c0.308,-0.062 0.71,-0.093 1.206,-0.093c0.556,-0 1.793,0.124 3.711,0.371c1.731,0.248 2.597,0.805 2.597,1.67c0,0.557 -0.154,0.975 -0.464,1.253c-0.309,0.278 -1.33,0.881 -3.061,1.809c-0.928,0.433 -2.041,1.454 -3.34,3.062l-0.186,0.278c-0.185,0.186 -0.449,0.45 -0.789,0.788c-0.34,0.341 -0.695,0.728 -1.066,1.161c-0.434,0.496 -1.176,1.825 -2.228,3.989l-1.391,2.042l-1.021,1.577l-0.649,0.928l-0.464,0.649l-3.34,5.01c-1.053,1.238 -1.763,2.32 -2.135,3.248c-0.432,1.299 -0.619,3.001 -0.556,5.103l0,6.031c-0.186,1.609 -0.279,2.474 -0.279,2.597c0,0.186 0.078,0.682 0.233,1.485c0.153,0.805 0.2,1.331 0.139,1.577l-0.186,4.269l-0.093,2.875c-0.062,1.485 0.186,2.846 0.742,4.084c0.433,0.99 1.361,2.103 2.785,3.339c1.05,0.868 1.577,1.577 1.577,2.134c0,0.557 -0.248,0.773 -0.742,0.65l-2.041,-0.093c-0.311,0.061 -0.96,0.093 -1.95,0.093l-4.36,-0.186Z" style="fill:#fff;fill-rule:nonzero;"/></g></g></svg>