<?xml version="1.0" encoding="UTF-8" standalone="no"?><!DOCTYPE svg PUBLIC "-//W3C//DTD SVG 1.1//EN" "http://www.w3.org/Graphics/SVG/1.1/DTD/svg11.dtd"><svg width="287px" height="55px" version="1.1" xmlns="http://www.w3.org/2000/svg" xmlns:xlink="http://www.w3.org/1999/xlink" xml:space="preserve" xmlns:serif="http://www.serif.com/" style="fill-rule:evenodd;clip-rule:evenodd;stroke-linejoin:round;stroke-miterlimit:2;"><rect id="Artboard1" x="0" y="0" width="286.299" height="54.448" style="fill:none;"/><g id="Artboard11" serif:id="Artboard1"><g transform="matrix(0.143401,0,0,0.143401,21.4168,-5.23243)"><g transform="matrix(4.16667,0,0,4.16667,896.169,157.135)"><path d="M0,33.216L0,38.505C0,42.03 1.577,44.227 4.732,45.093C4.855,45.155 5.087,45.449 5.428,45.974C5.767,46.5 5.938,46.856 5.938,47.041C5.938,47.783 5.289,48.154 3.99,48.154L2.505,48.154C-0.093,48.029 -2.042,47.876 -3.34,47.691L-3.526,47.691C-3.897,47.691 -4.671,47.814 -5.845,48.062C-6.712,48.185 -7.362,48.247 -7.794,48.247C-8.165,48.247 -9.278,48.154 -11.134,47.969C-11.32,47.906 -11.505,47.876 -11.691,47.876C-11.876,47.876 -12.279,47.937 -12.897,48.062C-13.516,48.185 -13.949,48.247 -14.196,48.247C-14.877,48.247 -15.216,47.969 -15.216,47.412C-15.216,46.795 -14.845,46.206 -14.103,45.65C-13.98,45.588 -13.671,45.434 -13.175,45.186C-12.681,44.939 -12.326,44.753 -12.108,44.629C-11.892,44.505 -11.583,44.32 -11.181,44.072C-10.779,43.825 -10.484,43.594 -10.299,43.376C-10.113,43.16 -9.897,42.898 -9.649,42.587C-9.403,42.279 -9.217,41.938 -9.093,41.567C-8.599,40.268 -8.258,38.041 -8.072,34.887L-8.072,30.526L-8.258,24.031L-8.258,23.01L-8.165,18.464L-8.072,16.516C-8.072,15.155 -8.042,14.042 -7.979,13.175C-7.918,12.247 -7.887,11.475 -7.887,10.856C-7.887,10.61 -7.918,10.269 -7.979,9.835C-7.979,9.712 -8.042,8.105 -8.165,5.011L-8.165,3.34L-8.072,-1.948C-8.072,-2.442 -8.197,-3.154 -8.443,-4.082L-8.722,-5.196C-8.97,-6.37 -9.31,-6.989 -9.742,-7.052L-11.32,-7.052C-11.876,-7.052 -12.558,-7.175 -13.361,-7.423C-13.917,-7.669 -14.414,-7.794 -14.845,-7.794C-16.516,-7.794 -17.97,-7.36 -19.206,-6.495C-19.888,-5.999 -20.505,-5.289 -21.062,-4.36C-21.372,-3.556 -21.804,-2.319 -22.361,-0.649C-22.732,0.403 -23.474,0.928 -24.587,0.928C-25.207,0.928 -25.516,0.496 -25.516,-0.371L-25.423,-7.979C-25.423,-8.165 -25.455,-8.288 -25.516,-8.35C-25.64,-9.339 -25.763,-10.329 -25.887,-11.319C-26.011,-12.308 -26.104,-13.004 -26.165,-13.407C-26.227,-13.808 -26.258,-14.041 -26.258,-14.103C-26.134,-14.412 -25.733,-14.567 -25.051,-14.567L-24.309,-14.382C-21.217,-13.639 -18.867,-13.268 -17.258,-13.268C-17.134,-13.268 -16.949,-13.299 -16.701,-13.361C-16.455,-13.422 -16.083,-13.484 -15.587,-13.547C-15.093,-13.607 -14.599,-13.67 -14.103,-13.732C-11.134,-13.732 -8.814,-13.886 -7.145,-14.196C-6.156,-14.319 -5.629,-14.382 -5.567,-14.382C-5.877,-14.382 -5.321,-14.289 -3.897,-14.103L1.855,-13.268C3.278,-13.083 4.361,-13.02 5.103,-13.083C5.35,-13.083 5.752,-13.113 6.309,-13.176C6.989,-13.299 8.01,-13.422 9.371,-13.547C11.35,-13.67 12.742,-13.793 13.546,-13.918C13.607,-13.918 13.746,-13.948 13.964,-14.011C14.18,-14.071 14.474,-14.149 14.845,-14.242C15.216,-14.335 15.588,-14.442 15.959,-14.567C17.01,-14.876 17.782,-15.031 18.278,-15.031C19.329,-15.031 19.855,-14.628 19.855,-13.825C19.855,-13.577 19.607,-12.865 19.113,-11.69L18.742,-10.763C18.309,-9.772 17.845,-8.102 17.351,-5.753C16.854,-3.401 16.391,-1.731 15.959,-0.742C15.588,-0.06 15.031,0.278 14.289,0.278C13.484,0.278 13.05,-0.401 12.99,-1.763C12.927,-3.618 12.34,-5.041 11.227,-6.031C10.67,-6.402 9.524,-6.648 7.793,-6.773C7.731,-6.773 7.376,-6.849 6.727,-7.005C6.077,-7.159 5.442,-7.298 4.825,-7.423C4.639,-7.483 4.391,-7.515 4.083,-7.515C3.526,-7.515 2.876,-7.33 2.134,-6.959C1.886,-6.896 1.422,-6.217 0.742,-4.918C0,-3.865 -0.341,-3.061 -0.278,-2.505L-0.186,0.186L0.093,2.412L0.093,3.526L0.186,5.382C0.186,7.176 0.154,8.506 0.093,9.371L-0.093,11.227L-0.093,19.485L0,22.546C0,22.732 -0.032,22.98 -0.093,23.288C-0.341,25.206 -0.464,26.877 -0.464,28.299L0,33.216Z" style="fill-rule:nonzero;"/></g><g transform="matrix(4.16667,0,0,4.16667,1007.9,356.812)"><path d="M0,-62.629L2.041,-62.536C2.227,-62.536 2.52,-62.551 2.922,-62.582C3.324,-62.612 3.896,-62.644 4.639,-62.675C5.381,-62.705 6.092,-62.722 6.772,-62.722C7.391,-62.722 8.103,-62.752 8.907,-62.815C9.03,-62.815 9.417,-62.829 10.066,-62.86C10.716,-62.891 11.164,-62.907 11.412,-62.907C12.711,-62.907 14.257,-62.69 16.051,-62.258C16.236,-62.195 16.422,-62.165 16.607,-62.165C16.793,-62.165 17.474,-62.258 18.649,-62.443C18.71,-62.504 19.113,-62.536 19.855,-62.536C20.658,-62.536 21.463,-62.567 22.268,-62.629C22.885,-62.69 23.628,-62.722 24.494,-62.722C25.793,-62.722 27.216,-62.567 28.763,-62.258C28.823,-62.258 28.948,-62.226 29.134,-62.165C29.319,-62.103 29.473,-62.072 29.598,-62.072C29.783,-62.133 30.493,-62.258 31.731,-62.443L32.381,-62.443C33.68,-62.443 34.391,-61.917 34.515,-60.866C34.576,-60.618 34.7,-59.041 34.886,-56.134C34.824,-55.577 34.793,-55.051 34.793,-54.557C34.793,-54.494 34.808,-54.339 34.84,-54.093C34.87,-53.845 34.933,-53.397 35.025,-52.747C35.118,-52.098 35.195,-51.463 35.257,-50.845C35.257,-50.659 35.271,-50.442 35.304,-50.195C35.334,-49.947 35.364,-49.746 35.396,-49.593C35.427,-49.438 35.442,-49.282 35.442,-49.129L35.442,-48.804C35.442,-47.814 35.164,-47.319 34.607,-47.319C34.174,-47.566 33.524,-47.999 32.659,-48.618C32.349,-48.804 31.731,-50.01 30.804,-52.236L29.876,-53.629C29.813,-53.815 29.412,-54.401 28.67,-55.392C28.113,-56.009 27.216,-56.505 25.979,-56.876C25.422,-56.999 24.463,-57.092 23.103,-57.154C23.04,-57.215 22.606,-57.34 21.804,-57.525C19.886,-58.143 18.371,-58.453 17.257,-58.453C14.288,-58.453 12.771,-57.679 12.711,-56.134L12.525,-54.093L12.34,-52.7L12.34,-51.958C11.969,-49.793 11.783,-48.185 11.783,-47.134L11.783,-46.113C11.783,-45.803 11.798,-45.479 11.829,-45.139C11.86,-44.798 11.876,-44.427 11.876,-44.025L11.876,-42.958L11.783,-39.154C11.783,-36.186 12.834,-34.701 14.938,-34.701C15.927,-34.701 16.824,-34.98 17.629,-35.536C19.855,-37.081 21.4,-38.38 22.268,-39.433C22.762,-40.112 23.226,-40.453 23.659,-40.453C24.092,-40.453 24.463,-40.112 24.772,-39.433C24.772,-39.37 24.787,-39.247 24.819,-39.062C24.85,-38.876 24.88,-38.598 24.912,-38.227C24.942,-37.856 24.958,-37.515 24.958,-37.206L25.144,-35.443C25.205,-34.268 25.144,-32.567 24.958,-30.34L24.772,-28.67L24.958,-26.722C24.958,-26.536 24.973,-26.304 25.005,-26.025C25.035,-25.747 25.081,-25.516 25.144,-25.33L25.144,-25.052C25.144,-24.618 24.896,-23.845 24.401,-22.732C24.277,-22.422 24.061,-22.268 23.752,-22.268C23.441,-22.268 22.917,-22.7 22.175,-23.566L21.154,-24.866L20.412,-26.907L18.835,-28.484C18.401,-29.102 18.061,-29.473 17.814,-29.598C17.381,-29.969 16.422,-30.154 14.938,-30.154C13.824,-30.154 13.143,-29.876 12.896,-29.319C12.896,-29.257 12.834,-27.742 12.711,-24.774C12.711,-24.277 12.54,-23.18 12.2,-21.48C11.86,-19.777 11.69,-18.617 11.69,-18C11.69,-17.318 11.721,-16.639 11.783,-15.959L11.69,-13.546C11.69,-13.112 11.628,-11.721 11.505,-9.371C11.505,-9.186 11.489,-9.015 11.458,-8.86C11.427,-8.706 11.412,-8.566 11.412,-8.443C11.412,-8.318 11.396,-8.211 11.365,-8.118C11.334,-8.025 11.319,-7.947 11.319,-7.887L11.319,-7.794C11.319,-5.753 13.175,-4.67 16.886,-4.546C19.113,-4.299 20.473,-4.175 20.969,-4.175C21.463,-4.175 22.606,-4.422 24.401,-4.917C25.391,-5.164 26.071,-5.475 26.442,-5.846L28.206,-7.516C29.628,-8.443 30.433,-9.061 30.618,-9.371C30.989,-10.051 31.669,-11.721 32.659,-14.381C32.968,-15.247 33.494,-15.681 34.236,-15.681C35.04,-15.681 35.442,-15.031 35.442,-13.732C35.442,-9.464 35.318,-6.618 35.071,-5.195L34.793,-1.577C34.483,-0.341 33.772,0.278 32.659,0.278C32.474,0.278 30.741,-0.063 27.464,-0.742C25.793,-0.494 24.803,-0.371 24.494,-0.371C24.432,-0.371 24.23,-0.387 23.892,-0.417C23.551,-0.449 23.01,-0.479 22.268,-0.511C21.525,-0.541 20.721,-0.557 19.855,-0.557L12.989,-0.278C12.804,-0.278 12.293,-0.311 11.458,-0.371C10.623,-0.434 10.081,-0.464 9.835,-0.464L9.186,-0.464C7.144,-0.464 4.947,-0.434 2.598,-0.371L-1.392,-0.186C-2.444,-0.186 -2.97,-0.494 -2.97,-1.113C-2.97,-1.916 -2.599,-2.535 -1.856,-2.969C-1.053,-3.401 -0.371,-3.711 0.186,-3.897C1.236,-5.195 1.886,-6.092 2.134,-6.588C2.257,-7.205 2.412,-8.258 2.598,-9.742L2.876,-12.433C2.876,-12.741 2.86,-13.375 2.829,-14.335C2.798,-15.293 2.783,-15.897 2.783,-16.145L2.783,-19.484C2.721,-20.164 2.69,-20.783 2.69,-21.34L2.783,-22.268L2.783,-23.01C2.783,-27.093 2.937,-29.783 3.247,-31.082C3.185,-31.7 3.122,-32.598 3.062,-33.773C2.999,-34.947 2.999,-36.278 3.062,-37.763L3.062,-40.36L3.247,-44.351C3.37,-46.081 3.556,-47.721 3.804,-49.268L3.154,-52.144C2.783,-54.123 2.38,-55.422 1.948,-56.041C1.144,-57.215 -0.278,-58.453 -2.32,-59.752C-2.567,-59.938 -2.691,-60.247 -2.691,-60.681C-2.691,-61.98 -1.795,-62.629 0,-62.629" style="fill-rule:nonzero;"/></g><g transform="matrix(4.16667,0,0,4.16667,1259.56,235.416)"><path d="M0,-4.359L3.063,-4.359C3.865,-4.359 4.886,-4.73 6.124,-5.473C8.165,-6.772 9.587,-7.978 10.392,-9.091C11.134,-10.08 11.659,-11.348 11.969,-12.895C12.03,-13.205 12.076,-13.499 12.108,-13.777C12.139,-14.055 12.186,-14.287 12.247,-14.472C12.309,-14.659 12.354,-14.828 12.387,-14.983C12.417,-15.136 12.433,-15.246 12.433,-15.308L12.433,-15.494C12.433,-16.173 12.278,-17.349 11.969,-19.019C11.845,-19.451 11.69,-20.132 11.505,-21.06C11.258,-22.545 10.206,-24.123 8.351,-25.793C7.298,-27.214 6.495,-28.142 5.938,-28.576C4.825,-29.318 3.712,-29.689 2.598,-29.689L0.835,-29.504C-0.897,-29.193 -1.825,-28.977 -1.948,-28.854C-2.505,-28.358 -3.062,-27.152 -3.618,-25.236C-4.114,-23.565 -4.36,-22.637 -4.36,-22.452L-4.082,-19.576L-4.175,-16.05L-3.989,-14.008L-3.989,-12.71C-3.989,-11.1 -4.021,-10.08 -4.082,-9.648C-4.145,-9.523 -4.175,-9.37 -4.175,-9.184C-4.052,-8.194 -3.959,-7.422 -3.896,-6.865C-3.711,-5.689 -3.465,-4.947 -3.154,-4.637C-2.908,-4.452 -1.855,-4.359 0,-4.359M-14.288,-33.308L-11.598,-33.308L-7.701,-33.494C-7.33,-33.494 -6.511,-33.416 -5.242,-33.261C-3.975,-33.106 -3.154,-33.03 -2.783,-33.03C-2.475,-33.03 -2.227,-33.06 -2.041,-33.123C-0.619,-33.308 0.464,-33.401 1.206,-33.401C2.319,-33.401 3.958,-33.246 6.124,-32.937C6.247,-32.875 6.417,-32.828 6.634,-32.797C6.851,-32.765 7.02,-32.752 7.145,-32.752C9.742,-32.38 11.288,-32.04 11.783,-31.731C14.938,-29.379 17.04,-27.37 18.093,-25.7C18.649,-24.772 19.144,-23.534 19.577,-21.988L20.319,-20.411C20.814,-19.297 21.062,-17.936 21.062,-16.329C21.062,-14.163 20.505,-11.905 19.392,-9.555C19.021,-8.751 18.246,-7.545 17.072,-5.937C16.887,-5.752 15.773,-5.07 13.732,-3.895C12.371,-3.09 11.69,-2.225 11.69,-1.297C13.051,0.064 13.918,0.961 14.289,1.393C14.66,2.012 15.062,3.373 15.495,5.476C15.741,6.652 16.205,7.888 16.887,9.187C17.072,9.806 17.318,10.764 17.629,12.063L18.093,14.476C18.278,16.765 18.772,18.62 19.577,20.042C19.886,20.538 20.319,20.877 20.876,21.063C21,21.125 21.742,21.248 23.104,21.434C24.34,21.559 24.959,22.208 24.959,23.382C24.959,24.064 24.711,24.651 24.217,25.146C24.031,25.455 23.071,26.012 21.34,26.816C18.186,28.363 16.112,29.135 15.124,29.135C14.442,29.135 13.825,28.764 13.269,28.022C13.269,27.836 12.958,26.909 12.34,25.239C12.216,24.868 12.076,24.45 11.923,23.986C11.768,23.522 11.582,22.965 11.366,22.316C11.148,21.666 10.979,21.156 10.855,20.785C10.855,20.724 10.824,20.584 10.763,20.368C10.7,20.151 10.639,19.78 10.577,19.254C10.515,18.729 10.453,18.249 10.392,17.816L9.557,14.29L8.814,9.651L8.258,7.424C7.576,4.951 6.989,3.373 6.495,2.692C5.876,1.827 4.763,0.899 3.155,-0.091C2.103,-0.709 0.772,-1.019 -0.835,-1.019C-1.517,-1.019 -2.181,-0.709 -2.83,-0.091C-3.479,0.528 -3.804,1.177 -3.804,1.857L-3.711,5.29C-3.711,5.476 -3.743,5.662 -3.804,5.847C-3.804,5.971 -3.851,6.62 -3.943,7.795C-4.036,8.971 -4.145,10.084 -4.268,11.135L-4.546,14.198C-4.423,16.424 -4.021,19.207 -3.34,22.547C-2.969,23.352 -2.382,23.94 -1.577,24.311C0.772,25.424 1.948,26.383 1.948,27.187C1.948,27.929 1.577,28.332 0.835,28.393C0.772,28.393 -0.217,28.455 -2.134,28.579L-5.103,28.486L-6.959,28.486C-9.124,28.177 -10.238,28.022 -10.299,28.022C-10.547,28.022 -11.289,28.177 -12.525,28.486L-15.401,28.486C-16.577,28.546 -17.165,27.992 -17.165,26.816C-17.165,26.259 -16.825,25.703 -16.144,25.146C-15.03,24.342 -14.258,23.63 -13.824,23.011C-12.896,21.775 -12.31,20.817 -12.062,20.135C-11.815,19.393 -11.69,18.497 -11.69,17.445L-11.598,9.372L-11.598,7.841C-11.598,7.317 -11.583,6.821 -11.552,6.357C-11.521,5.893 -11.49,5.461 -11.459,5.058C-11.428,4.657 -11.412,4.331 -11.412,4.083L-11.412,3.388C-11.412,3.11 -11.428,2.817 -11.459,2.506C-11.49,2.198 -11.505,1.857 -11.505,1.486C-11.567,0.435 -11.598,-1.297 -11.598,-3.71L-11.505,-7.422L-11.69,-12.338L-11.69,-16.793L-11.783,-17.628C-11.783,-18.059 -11.799,-18.586 -11.83,-19.205C-11.861,-19.822 -11.892,-20.302 -11.923,-20.643C-11.954,-20.982 -11.969,-21.246 -11.969,-21.431C-11.969,-21.864 -12.187,-23.07 -12.618,-25.05C-12.618,-25.236 -12.836,-26.224 -13.268,-28.019C-13.516,-28.636 -14.135,-29.255 -15.123,-29.875C-16.051,-30.431 -16.516,-30.957 -16.516,-31.453C-16.516,-32.07 -16.392,-32.504 -16.144,-32.752C-15.772,-33.123 -15.155,-33.308 -14.288,-33.308" style="fill-rule:nonzero;"/></g><g transform="matrix(4.16667,0,0,4.16667,1454.01,235.416)"><path d="M0,-4.359L3.063,-4.359C3.865,-4.359 4.886,-4.73 6.124,-5.473C8.165,-6.772 9.587,-7.978 10.392,-9.091C11.134,-10.08 11.659,-11.348 11.969,-12.895C12.03,-13.205 12.076,-13.499 12.108,-13.777C12.139,-14.055 12.186,-14.287 12.247,-14.472C12.309,-14.659 12.354,-14.828 12.387,-14.983C12.417,-15.136 12.433,-15.246 12.433,-15.308L12.433,-15.494C12.433,-16.173 12.278,-17.349 11.969,-19.019C11.845,-19.451 11.69,-20.132 11.505,-21.06C11.258,-22.545 10.206,-24.123 8.351,-25.793C7.298,-27.214 6.495,-28.142 5.938,-28.576C4.825,-29.318 3.712,-29.689 2.598,-29.689L0.835,-29.504C-0.897,-29.193 -1.825,-28.977 -1.948,-28.854C-2.505,-28.358 -3.062,-27.152 -3.618,-25.236C-4.114,-23.565 -4.36,-22.637 -4.36,-22.452L-4.082,-19.576L-4.175,-16.05L-3.989,-14.008L-3.989,-12.71C-3.989,-11.1 -4.021,-10.08 -4.082,-9.648C-4.145,-9.523 -4.175,-9.37 -4.175,-9.184C-4.052,-8.194 -3.959,-7.422 -3.896,-6.865C-3.711,-5.689 -3.465,-4.947 -3.154,-4.637C-2.908,-4.452 -1.855,-4.359 0,-4.359M-14.288,-33.308L-11.598,-33.308L-7.701,-33.494C-7.33,-33.494 -6.511,-33.416 -5.242,-33.261C-3.975,-33.106 -3.154,-33.03 -2.783,-33.03C-2.475,-33.03 -2.227,-33.06 -2.041,-33.123C-0.619,-33.308 0.464,-33.401 1.206,-33.401C2.319,-33.401 3.958,-33.246 6.124,-32.937C6.247,-32.875 6.417,-32.828 6.634,-32.797C6.851,-32.765 7.02,-32.752 7.145,-32.752C9.742,-32.38 11.288,-32.04 11.783,-31.731C14.938,-29.379 17.04,-27.37 18.093,-25.7C18.649,-24.772 19.144,-23.534 19.577,-21.988L20.319,-20.411C20.814,-19.297 21.062,-17.936 21.062,-16.329C21.062,-14.163 20.505,-11.905 19.392,-9.555C19.021,-8.751 18.246,-7.545 17.072,-5.937C16.887,-5.752 15.773,-5.07 13.732,-3.895C12.371,-3.09 11.69,-2.225 11.69,-1.297C13.051,0.064 13.918,0.961 14.289,1.393C14.66,2.012 15.062,3.373 15.495,5.476C15.741,6.652 16.205,7.888 16.887,9.187C17.072,9.806 17.318,10.764 17.629,12.063L18.093,14.476C18.278,16.765 18.772,18.62 19.577,20.042C19.886,20.538 20.319,20.877 20.876,21.063C21,21.125 21.742,21.248 23.104,21.434C24.34,21.559 24.959,22.208 24.959,23.382C24.959,24.064 24.711,24.651 24.217,25.146C24.031,25.455 23.071,26.012 21.34,26.816C18.186,28.363 16.112,29.135 15.124,29.135C14.442,29.135 13.825,28.764 13.269,28.022C13.269,27.836 12.958,26.909 12.34,25.239C12.216,24.868 12.076,24.45 11.923,23.986C11.768,23.522 11.582,22.965 11.366,22.316C11.148,21.666 10.979,21.156 10.855,20.785C10.855,20.724 10.824,20.584 10.763,20.368C10.7,20.151 10.639,19.78 10.577,19.254C10.515,18.729 10.453,18.249 10.392,17.816L9.557,14.29L8.814,9.651L8.258,7.424C7.576,4.951 6.989,3.373 6.495,2.692C5.876,1.827 4.763,0.899 3.155,-0.091C2.103,-0.709 0.772,-1.019 -0.835,-1.019C-1.517,-1.019 -2.181,-0.709 -2.83,-0.091C-3.479,0.528 -3.804,1.177 -3.804,1.857L-3.711,5.29C-3.711,5.476 -3.743,5.662 -3.804,5.847C-3.804,5.971 -3.851,6.62 -3.943,7.795C-4.036,8.971 -4.145,10.084 -4.268,11.135L-4.546,14.198C-4.423,16.424 -4.021,19.207 -3.34,22.547C-2.969,23.352 -2.382,23.94 -1.577,24.311C0.772,25.424 1.948,26.383 1.948,27.187C1.948,27.929 1.577,28.332 0.835,28.393C0.772,28.393 -0.217,28.455 -2.134,28.579L-5.103,28.486L-6.959,28.486C-9.124,28.177 -10.238,28.022 -10.299,28.022C-10.547,28.022 -11.289,28.177 -12.525,28.486L-15.401,28.486C-16.577,28.546 -17.165,27.992 -17.165,26.816C-17.165,26.259 -16.825,25.703 -16.144,25.146C-15.03,24.342 -14.258,23.63 -13.824,23.011C-12.896,21.775 -12.31,20.817 -12.062,20.135C-11.815,19.393 -11.69,18.497 -11.69,17.445L-11.598,9.372L-11.598,7.841C-11.598,7.317 -11.583,6.821 -11.552,6.357C-11.521,5.893 -11.49,5.461 -11.459,5.058C-11.428,4.657 -11.412,4.331 -11.412,4.083L-11.412,3.388C-11.412,3.11 -11.428,2.817 -11.459,2.506C-11.49,2.198 -11.505,1.857 -11.505,1.486C-11.567,0.435 -11.598,-1.297 -11.598,-3.71L-11.505,-7.422L-11.69,-12.338L-11.69,-16.793L-11.783,-17.628C-11.783,-18.059 -11.799,-18.586 -11.83,-19.205C-11.861,-19.822 -11.892,-20.302 -11.923,-20.643C-11.954,-20.982 -11.969,-21.246 -11.969,-21.431C-11.969,-21.864 -12.187,-23.07 -12.618,-25.05C-12.618,-25.236 -12.836,-26.224 -13.268,-28.019C-13.516,-28.636 -14.135,-29.255 -15.123,-29.875C-16.051,-30.431 -16.516,-30.957 -16.516,-31.453C-16.516,-32.07 -16.392,-32.504 -16.144,-32.752C-15.772,-33.123 -15.155,-33.308 -14.288,-33.308" style="fill-rule:nonzero;"/></g><g transform="matrix(4.16667,0,0,4.16667,1661.23,279.105)"><path d="M0,-25.33C-0.187,-25.33 -0.341,-25.268 -0.465,-25.144L-1.393,-23.566C-2.073,-22.392 -2.691,-21.309 -3.248,-20.319C-4.176,-17.597 -4.64,-15.648 -4.64,-14.475C-4.64,-13.793 -4.547,-13.236 -4.361,-12.804C-3.99,-11.937 -2.754,-11.288 -0.65,-10.855C-0.093,-10.793 0.339,-10.7 0.649,-10.577C1.452,-10.329 2.164,-10.206 2.783,-10.206C3.586,-10.206 3.989,-10.638 3.989,-11.505C3.989,-14.846 3.586,-17.814 2.783,-20.412C1.73,-23.69 0.803,-25.33 0,-25.33M13.175,18.649C13.05,18.649 12.927,18.682 12.804,18.742C11.565,19.174 10.452,19.392 9.464,19.392C8.474,19.392 7.979,19.081 7.979,18.464C7.979,18.032 8.411,17.475 9.277,16.794C11.134,15.31 12.062,13.608 12.062,11.691C12.062,10.64 11.783,9.248 11.227,7.516C11.227,7.454 11.148,7.253 10.994,6.912C10.839,6.573 10.623,6.077 10.345,5.428C10.066,4.778 9.772,4.082 9.464,3.34C9.277,2.969 8.782,1.083 7.979,-2.319C7.174,-4.607 5.659,-5.753 3.433,-5.753L0.464,-6.495C-0.526,-6.866 -1.702,-7.052 -3.063,-7.052C-5.166,-7.052 -6.743,-6.773 -7.794,-6.217C-8.599,-5.969 -9.341,-4.7 -10.021,-2.412C-10.393,-0.803 -10.795,0.341 -11.228,1.021C-12.094,2.444 -12.682,3.711 -12.99,4.825C-12.99,4.887 -13.115,5.536 -13.361,6.774C-13.672,9.125 -13.825,10.392 -13.825,10.577C-13.825,11.816 -13.672,12.681 -13.361,13.175L-12.99,13.546C-12.743,13.794 -12.372,14.195 -11.877,14.753C-11.383,15.31 -10.825,15.898 -10.207,16.516C-9.526,17.196 -9.186,17.661 -9.186,17.907C-9.186,18.712 -9.929,19.113 -11.413,19.113C-12.218,19.113 -13.208,19.081 -14.382,19.021L-17.722,19.021L-21.805,19.113C-23.289,19.113 -24.031,18.649 -24.031,17.722C-24.031,17.165 -23.878,16.794 -23.567,16.608L-21.805,15.217C-21.434,14.97 -20.815,13.824 -19.949,11.783C-19.888,11.598 -19.361,10.856 -18.371,9.557C-18.125,9.248 -17.691,7.887 -17.072,5.475C-16.887,5.165 -16.114,3.247 -14.753,-0.278L-13.269,-4.36C-11.784,-8.318 -10.207,-12.618 -8.536,-17.258C-8.536,-17.381 -8.43,-17.706 -8.212,-18.231C-7.996,-18.757 -7.641,-19.638 -7.145,-20.876C-6.65,-22.112 -6.156,-23.35 -5.66,-24.588C-4.115,-28.299 -3.187,-30.68 -2.877,-31.731C-1.888,-34.701 -1.176,-37.886 -0.743,-41.289C-0.372,-43.576 0.371,-44.722 1.484,-44.722C1.855,-44.722 2.287,-44.195 2.783,-43.144C3.092,-42.525 4.112,-39.618 5.845,-34.423C5.845,-34.36 6.37,-33.247 7.422,-31.082C7.483,-30.648 7.669,-29.783 7.979,-28.484C8.04,-28.299 8.118,-28.02 8.211,-27.649C8.304,-27.278 8.442,-26.767 8.628,-26.118C8.813,-25.469 8.968,-24.896 9.092,-24.402C9.216,-23.906 9.742,-22.7 10.67,-20.783L13.175,-14.288L14.01,-11.041L15.587,-5.938C16.144,-4.143 16.886,-1.731 17.813,1.299C18.246,2.412 18.958,4.608 19.948,7.887C20.876,10.856 21.957,13.022 23.195,14.382C23.381,14.443 24.091,14.97 25.329,15.959C25.7,16.269 25.886,16.701 25.886,17.258C25.886,18.125 25.298,18.649 24.123,18.835L18.834,19.021L16.515,19.206C16.329,19.206 15.216,19.021 13.175,18.649" style="fill-rule:nonzero;"/></g><g transform="matrix(4.16667,0,0,4.16667,-52.74,356.422)"><path d="M0,-62.442C0.68,-62.442 1.422,-62.411 2.227,-62.349L3.248,-62.349C3.99,-62.287 5.257,-62.256 7.052,-62.256L9.743,-62.256L13.917,-62.349C15.277,-62.349 15.959,-61.947 15.959,-61.143C15.959,-60.647 15.804,-60.308 15.495,-60.123L13.639,-58.638C12.03,-57.339 11.227,-54.802 11.227,-51.03C11.227,-50.596 11.32,-49.142 11.505,-46.67L11.505,-45.184C11.505,-44.008 11.443,-42.865 11.32,-41.752C11.009,-39.277 10.856,-37.978 10.856,-37.855C10.856,-35.937 12.248,-34.669 15.031,-34.05C15.959,-33.865 17.875,-33.772 20.784,-33.772L24.124,-33.772C26.783,-33.772 28.608,-33.895 29.598,-34.143L34.794,-33.494C35.845,-33.308 37.422,-33.741 39.526,-34.793C40.577,-35.288 41.103,-36.03 41.103,-37.02C41.103,-37.329 41.041,-37.916 40.917,-38.783C40.917,-39.091 40.885,-39.339 40.825,-39.525L40.917,-40.36L40.917,-44.349L41.196,-48.711C41.01,-49.761 40.917,-50.441 40.917,-50.752C40.917,-51.431 40.948,-52.05 41.01,-52.607C41.071,-52.854 41.103,-53.164 41.103,-53.535C41.103,-55.329 40.669,-56.843 39.804,-58.082C39.619,-58.39 39.155,-58.669 38.413,-58.917C37.299,-59.288 36.742,-59.812 36.742,-60.494C36.742,-61.296 37.36,-61.7 38.598,-61.7L40.639,-61.7C40.885,-61.7 41.319,-61.714 41.938,-61.747C42.556,-61.777 42.989,-61.793 43.237,-61.793C43.298,-61.793 43.391,-61.777 43.515,-61.747C43.638,-61.714 43.808,-61.684 44.026,-61.654C44.242,-61.622 44.474,-61.607 44.721,-61.607C44.845,-61.545 45,-61.514 45.185,-61.514C45.495,-61.514 46.237,-61.591 47.413,-61.747C48.586,-61.9 49.361,-61.978 49.732,-61.978C52.515,-61.978 53.907,-61.637 53.907,-60.958C53.907,-60.71 52.917,-59.689 50.938,-57.896C49.885,-56.843 49.361,-54.431 49.361,-50.659C49.361,-50.163 49.391,-49.761 49.454,-49.453C49.514,-48.896 49.546,-48.432 49.546,-48.061C49.546,-47.813 49.531,-47.379 49.5,-46.762C49.468,-46.143 49.454,-45.772 49.454,-45.648C49.454,-44.844 49.577,-42.802 49.825,-39.525L49.639,-37.67C49.639,-36.494 49.607,-35.164 49.546,-33.679C49.546,-33.308 49.484,-32.38 49.361,-30.896C49.298,-30.711 49.268,-30.463 49.268,-30.154C49.268,-29.658 49.361,-28.329 49.546,-26.164L49.546,-25.05L49.454,-21.711L49.361,-10.762C49.236,-7.483 49.855,-5.132 51.216,-3.711L51.402,-3.618C51.587,-3.493 51.803,-3.324 52.051,-3.108C52.298,-2.89 52.577,-2.658 52.886,-2.412C53.628,-1.855 54,-1.359 54,-0.927C54,-0.308 53.567,0 52.701,0C51.958,0 51.061,-0.092 50.01,-0.278L41.103,-0.278C39.248,-0.155 38.195,-0.092 37.949,-0.092C37.144,-0.092 36.742,-0.371 36.742,-0.927C36.742,-1.113 36.803,-1.266 36.927,-1.391L39.619,-3.896C40.361,-4.514 40.855,-5.844 41.103,-7.886C41.164,-8.689 41.256,-10.607 41.381,-13.638L41.474,-14.752C41.164,-15.865 41.01,-16.514 41.01,-16.7L41.103,-20.968C41.103,-21.277 41.118,-21.571 41.15,-21.85C41.18,-22.129 41.21,-22.344 41.243,-22.5C41.273,-22.653 41.289,-22.808 41.289,-22.963L41.289,-23.288C41.289,-25.824 41.041,-27.431 40.546,-28.113C39.865,-28.978 38.042,-29.442 35.072,-29.504L33.495,-29.597L32.66,-29.597C29.814,-29.472 28.299,-29.412 28.113,-29.412C28.051,-29.412 27.278,-29.472 25.794,-29.597L24.959,-29.597C24.896,-29.597 24.773,-29.581 24.588,-29.55C24.402,-29.519 24.092,-29.488 23.66,-29.458C23.227,-29.426 22.793,-29.412 22.361,-29.412L22.083,-29.412C21.649,-29.412 20.598,-29.535 18.928,-29.783C18.061,-29.906 17.319,-29.968 16.701,-29.968C13.299,-29.968 11.381,-28.823 10.949,-26.535L10.949,-23.38L10.856,-21.061C10.856,-20.876 10.87,-20.565 10.902,-20.133C10.933,-19.7 10.963,-19.096 10.995,-18.324C11.025,-17.549 11.042,-16.793 11.042,-16.05L11.042,-15.03C11.042,-14.844 10.949,-13.917 10.763,-12.247C10.886,-10.762 10.949,-9.988 10.949,-9.927C11.752,-7.701 12.309,-6.154 12.619,-5.288C13.979,-3.741 14.906,-2.783 15.402,-2.412C16.33,-1.793 16.794,-1.298 16.794,-0.927C16.794,-0.494 16.484,-0.278 15.866,-0.278L7.516,-0.278C7.02,-0.278 6.402,-0.338 5.66,-0.463C5.475,-0.524 5.104,-0.556 4.546,-0.556C4.175,-0.556 3.355,-0.509 2.088,-0.417C0.819,-0.324 0,-0.278 -0.371,-0.278C-3.093,-0.278 -4.453,-0.802 -4.453,-1.855C-4.453,-2.535 -3.743,-3.061 -2.319,-3.432C-0.217,-3.864 1.174,-4.761 1.856,-6.123C2.165,-6.989 2.381,-8.195 2.505,-9.742C2.566,-10.298 2.598,-12.307 2.598,-15.772C2.598,-15.896 2.536,-17.132 2.413,-19.484C2.35,-20.287 2.32,-21.029 2.32,-21.711C2.32,-21.957 2.474,-24.184 2.784,-28.391C2.659,-30.989 2.598,-32.659 2.598,-33.401C2.598,-34.576 2.784,-36.215 3.155,-38.319C3.216,-38.442 3.248,-38.72 3.248,-39.154C3.248,-39.586 3.216,-39.989 3.155,-40.36C3.092,-41.411 3.062,-42.71 3.062,-44.256C3.062,-44.132 3.077,-44.241 3.108,-44.582C3.139,-44.921 3.155,-45.246 3.155,-45.555L3.155,-48.618L3.062,-51.308L3.062,-53.349C3.062,-56.565 1.701,-58.606 -1.021,-59.473C-2.011,-59.719 -2.505,-60.276 -2.505,-61.143C-2.505,-62.008 -1.67,-62.442 0,-62.442" style="fill-rule:nonzero;"/></g><g transform="matrix(4.16667,0,0,4.16667,-496.441,-1548.02)"><g transform="matrix(1,0,0,1,186.459,442.571)"><path d="M0,-35.07C-0.771,-34.993 -1.502,-34.724 -2.195,-34.261C-3.082,-33.684 -3.813,-33.202 -4.391,-32.817C-5.354,-31.854 -6.259,-30.814 -7.106,-29.698C-7.376,-29.388 -7.857,-28.561 -8.551,-27.213L-9.359,-25.768L-9.822,-24.555C-9.86,-24.44 -10.11,-23.841 -10.573,-22.764C-10.688,-22.301 -10.746,-21.473 -10.746,-20.28C-10.746,-19.702 -10.727,-19.182 -10.688,-18.719L-10.688,-16.986L-10.804,-13.289C-10.804,-13.095 -10.515,-11.805 -9.937,-9.418C-9.745,-8.724 -9.514,-7.916 -9.244,-6.991C-9.206,-6.837 -8.628,-6.143 -7.511,-4.911C-7.048,-4.102 -6.683,-3.562 -6.413,-3.294C-5.951,-2.984 -5.431,-2.619 -4.853,-2.195C-3.621,-1.271 -2.735,-0.713 -2.195,-0.52C-1.811,-0.366 -0.963,-0.231 0.347,-0.116C0.616,-0.116 0.876,-0.105 1.127,-0.087C1.377,-0.067 1.58,-0.048 1.734,-0.029C1.887,-0.008 1.984,-0 2.023,-0C3.178,-0 4.045,-0.095 4.623,-0.289C5.084,-0.481 5.604,-0.789 6.182,-1.214C6.567,-1.521 7.434,-2.099 8.783,-2.947C9.206,-3.255 9.668,-3.832 10.169,-4.679C10.169,-4.757 10.285,-4.93 10.516,-5.2C11.132,-6.047 12.095,-7.684 13.405,-10.111C13.636,-10.92 13.771,-11.69 13.809,-12.423C13.809,-12.614 13.818,-12.788 13.838,-12.942C13.857,-13.095 13.867,-13.192 13.867,-13.231L13.867,-17.883C13.867,-18.016 13.857,-18.218 13.838,-18.489C13.818,-18.758 13.809,-19.027 13.809,-19.298C13.771,-19.566 13.741,-20.009 13.722,-20.627C13.702,-21.242 13.694,-21.705 13.694,-22.013C13.616,-22.167 13.5,-22.571 13.347,-23.226C13,-24.766 12.345,-26.346 11.382,-27.964C10.958,-28.773 9.957,-30.044 8.378,-31.777C7.685,-32.624 7.184,-33.202 6.876,-33.51C6.606,-33.78 5.951,-34.031 4.911,-34.261C4.873,-34.261 4.776,-34.281 4.623,-34.319C4.468,-34.357 4.371,-34.396 4.333,-34.435C3.793,-34.628 2.966,-34.743 1.85,-34.782L0,-35.07ZM3.236,-37.728C5.007,-37.728 6.529,-37.497 7.8,-37.035C8.686,-36.688 9.745,-36.033 10.978,-35.07C11.055,-34.993 11.613,-34.589 12.653,-33.857L12.827,-33.684C12.943,-33.606 13.116,-33.462 13.347,-33.251C13.578,-33.039 13.828,-32.798 14.098,-32.529C14.637,-32.066 15.138,-31.604 15.6,-31.141C15.753,-30.987 15.984,-30.66 16.293,-30.16L17.333,-28.426C18.258,-27.001 18.797,-26.153 18.952,-25.884C18.989,-25.845 19.125,-25.306 19.356,-24.266C19.625,-23.611 19.895,-22.86 20.165,-22.013C20.165,-21.396 20.184,-20.916 20.223,-20.569L20.396,-18.258C20.396,-18.064 20.338,-17.371 20.223,-16.177L20.338,-13.578C20.375,-13.115 20.299,-12.423 20.107,-11.498C19.991,-11.035 19.529,-9.957 18.72,-8.262L17.795,-6.414L16.929,-5.373L16.293,-4.622L15.485,-3.64C14.907,-2.947 13.789,-1.868 12.133,-0.405C8.936,1.638 5.316,2.658 1.271,2.658C-1.155,2.658 -3.004,2.464 -4.275,2.08C-8.589,0.809 -11.864,-1.983 -14.097,-6.298C-15.215,-8.455 -16.004,-10.284 -16.466,-11.787C-16.812,-12.865 -17.063,-13.904 -17.217,-14.907L-17.275,-15.254C-17.275,-15.484 -17.285,-15.86 -17.304,-16.38C-17.324,-16.9 -17.333,-17.449 -17.333,-18.026C-17.333,-18.142 -17.343,-18.296 -17.362,-18.489C-17.382,-18.68 -17.391,-18.854 -17.391,-19.008L-17.449,-19.182C-17.449,-20.606 -17.14,-22.244 -16.523,-24.093C-16.255,-24.902 -15.542,-26.289 -14.386,-28.253C-14.31,-28.369 -13.597,-29.466 -12.249,-31.547C-10.554,-33.356 -8.435,-34.84 -5.893,-35.995C-4.122,-36.765 -2.946,-37.209 -2.369,-37.324C-2.253,-37.362 -1.444,-37.439 0.058,-37.555C1.714,-37.671 2.774,-37.728 3.236,-37.728" style="fill-rule:nonzero;"/></g><g transform="matrix(1,0,0,1,173.051,455.493)"><path d="M0,-5.151L3.74,-5.076L6.92,-5.076L10.1,-4.924C10.849,-4.924 11.971,-5.025 13.467,-5.227C13.841,-5.277 14.338,-5.303 14.963,-5.303C15.711,-5.303 17.114,-5.265 19.171,-5.189C21.229,-5.114 22.506,-5.076 23.006,-5.076C23.503,-5.076 24.625,-5.126 26.372,-5.227C28.117,-5.328 29.239,-5.379 29.739,-5.379C31.483,-5.379 32.919,-5.076 34.041,-4.469C34.538,-4.267 34.789,-4.065 34.789,-3.864C34.789,-3.813 34.477,-3.409 33.854,-2.651C33.603,-1.288 33.416,-0.58 33.293,-0.53C32.667,-0.126 32.045,0.076 31.423,0.076C31.049,0.076 30.02,0.013 28.336,-0.113C26.653,-0.239 25.56,-0.302 25.063,-0.302C23.441,-0.302 21.758,-0.227 20.013,-0.076C19.888,-0.024 19.7,-0 19.452,-0C19.2,-0 19.014,0.027 18.891,0.076L13.653,-0.227L10.1,-0C9.601,-0 9.133,-0.011 8.697,-0.038C8.259,-0.062 7.917,-0.088 7.669,-0.113C7.417,-0.138 7.23,-0.151 7.107,-0.151L3.366,0.076L1.122,0.152C0.871,0.203 0.374,0.228 -0.374,0.228C-1.248,0.228 -1.996,0.027 -2.618,-0.379C-2.744,-0.479 -2.806,-0.58 -2.806,-0.681L-2.244,-2.651L-1.684,-4.697C-1.435,-4.898 -0.874,-5.049 0,-5.151" style="fill-rule:nonzero;"/></g><g transform="matrix(1,0,0,1,172.595,400.153)"><path d="M0,-4.007L3.74,-3.948L6.92,-3.948L10.1,-3.83C10.849,-3.83 11.971,-3.908 13.467,-4.067C13.841,-4.105 14.338,-4.125 14.963,-4.125C15.711,-4.125 17.114,-4.096 19.171,-4.037C21.229,-3.978 22.506,-3.948 23.006,-3.948C23.503,-3.948 24.625,-3.987 26.372,-4.067C28.117,-4.145 29.239,-4.184 29.739,-4.184C31.483,-4.184 32.919,-3.948 34.041,-3.477C34.538,-3.32 34.789,-3.162 34.789,-3.006C34.789,-2.966 34.477,-2.652 33.854,-2.063C33.603,-1.002 33.416,-0.451 33.293,-0.412C32.667,-0.098 32.045,0.058 31.423,0.058C31.049,0.058 30.02,0.01 28.336,-0.088C26.653,-0.186 25.56,-0.236 25.063,-0.236C23.441,-0.236 21.758,-0.177 20.013,-0.059C19.888,-0.02 19.7,0 19.452,0C19.2,0 19.014,0.02 18.891,0.058L13.653,-0.177L10.1,0C9.601,0 9.133,-0.009 8.697,-0.029C8.259,-0.049 7.917,-0.069 7.669,-0.088C7.417,-0.108 7.23,-0.118 7.107,-0.118L3.366,0.058L1.122,0.118C0.871,0.157 0.374,0.177 -0.374,0.177C-1.248,0.177 -1.996,0.02 -2.618,-0.295C-2.744,-0.373 -2.806,-0.451 -2.806,-0.53L-2.244,-2.063L-1.684,-3.653C-1.435,-3.811 -0.874,-3.928 0,-4.007" style="fill-rule:nonzero;"/></g></g><g transform="matrix(4.16667,0,0,4.16667,410.35,355.564)"><path d="M0,-62.134L6.309,-61.948C7.36,-62.072 9.03,-62.164 11.319,-62.227L13.917,-62.32C15.34,-62.443 16.051,-61.979 16.051,-60.928C16.051,-60.494 15.865,-60.186 15.494,-59.999L14.381,-59.35L13.175,-57.773C12.556,-57.154 12.215,-56.69 12.154,-56.381C10.979,-53.227 10.392,-49.422 10.392,-44.969C10.392,-42.123 10.484,-39.309 10.67,-36.526L10.577,-32.444L10.577,-23.629C10.577,-23.381 10.484,-22.609 10.299,-21.309C10.236,-20.999 10.206,-20.443 10.206,-19.639C10.206,-19.02 10.299,-18.155 10.484,-17.041C10.545,-15.803 10.638,-14.938 10.763,-14.444L10.948,-12.03C10.948,-11.598 10.823,-10.763 10.577,-9.526L10.577,-8.783C10.577,-5.875 12.029,-4.423 14.938,-4.423C15.556,-4.423 16.639,-4.546 18.186,-4.794C19.359,-4.794 20.628,-4.824 21.989,-4.887L22.917,-4.98L25.329,-4.98C25.886,-4.98 26.814,-5.722 28.113,-7.206C29.783,-9.185 30.741,-10.453 30.989,-11.01C32.288,-13.484 33.185,-14.722 33.68,-14.722C34.359,-14.722 34.639,-14.288 34.515,-13.423L34.236,-9.433L34.515,-6.186L34.515,-5.072L34.607,-3.495C34.607,-2.01 34.144,-1.02 33.216,-0.526C32.597,-0.402 31.421,-0.34 29.69,-0.34L27.371,-0.34L21.154,-0.526C21.092,-0.526 20.983,-0.51 20.829,-0.48C20.675,-0.447 20.412,-0.417 20.041,-0.387C19.67,-0.355 19.329,-0.34 19.021,-0.34L18.186,-0.34C17.195,-0.217 16.422,-0.155 15.865,-0.155C14.504,-0.155 12.804,-0.28 10.763,-0.526C10.021,-0.649 9.309,-0.711 8.629,-0.711C7.701,-0.711 5.937,-0.649 3.34,-0.526C3.277,-0.526 3.092,-0.494 2.783,-0.433C2.473,-0.37 1.994,-0.28 1.345,-0.155C0.695,-0.031 0.061,0.092 -0.557,0.217C-0.742,0.277 -0.99,0.309 -1.299,0.309C-2.846,0.309 -3.619,-0.094 -3.619,-0.897C-3.619,-1.515 -3.341,-2.164 -2.784,-2.846C-2.228,-3.217 -1.64,-3.711 -1.021,-4.33C0.587,-5.752 1.484,-7.731 1.67,-10.268C1.855,-11.443 2.009,-14.103 2.134,-18.247L2.134,-24.928C2.134,-25.36 2.118,-25.763 2.087,-26.134C2.056,-26.505 2.041,-26.814 2.041,-27.062L2.041,-27.433C2.041,-28.979 2.194,-30.834 2.505,-33C2.565,-33.123 2.598,-33.464 2.598,-34.021L2.505,-34.299L2.505,-35.134C2.505,-35.505 2.489,-35.891 2.458,-36.294C2.427,-36.696 2.396,-37.159 2.365,-37.686C2.334,-38.21 2.319,-38.69 2.319,-39.123L2.319,-48.865L2.134,-51.186C2.071,-51.557 2.025,-52.128 1.994,-52.902C1.963,-53.674 1.948,-54.278 1.948,-54.711C1.638,-55.143 1.236,-55.824 0.742,-56.752L-0.278,-58.329C-0.464,-58.515 -0.805,-58.7 -1.299,-58.886C-1.795,-59.133 -2.32,-59.35 -2.877,-59.535C-3.31,-59.782 -3.526,-60.186 -3.526,-60.742C-3.526,-61.485 -3.031,-61.886 -2.041,-61.948C-1.855,-62.009 -1.531,-62.056 -1.067,-62.087C-0.604,-62.117 -0.248,-62.134 0,-62.134" style="fill-rule:nonzero;"/></g><g transform="matrix(4.16667,0,0,4.16667,632.51,97.9199)"><path d="M0,61.67C-0.186,61.67 -0.371,61.7 -0.557,61.763C-2.289,61.886 -3.217,61.948 -3.34,61.948C-3.711,61.948 -4.052,61.917 -4.361,61.856C-5.042,61.793 -5.63,61.763 -6.124,61.763L-7.33,61.856L-9.464,61.856C-10.888,61.979 -11.598,61.67 -11.598,60.928C-11.598,60.371 -11.382,60 -10.948,59.815L-8.907,58.887C-8.413,58.578 -7.578,57.526 -6.402,55.733C-5.165,54.187 -4.547,53.073 -4.547,52.392L-4.547,51.928C-4.547,51.682 -4.562,51.464 -4.593,51.278C-4.625,51.093 -4.64,50.94 -4.64,50.815L-4.64,50.351L-4.361,44.876C-4.361,43.948 -4.269,42.557 -4.083,40.701C-4.083,40.393 -4.052,40.145 -3.99,39.959L-4.361,34.948C-4.485,33.774 -4.578,32.599 -4.64,31.423C-4.64,31.3 -5.382,30.001 -6.866,27.526C-7.114,27.094 -8.165,25.269 -10.021,22.052C-10.948,20.878 -11.598,20.043 -11.969,19.547C-13.145,18.063 -14.011,16.795 -14.567,15.742C-14.629,15.557 -15.248,14.536 -16.423,12.681C-17.847,10.331 -18.774,8.94 -19.206,8.506L-21.062,6.743L-22.731,4.887L-24.124,3.681C-25.732,2.63 -26.599,2.043 -26.722,1.918C-26.97,1.672 -27.093,1.361 -27.093,0.99C-27.093,0.744 -26.97,0.496 -26.722,0.248C-26.661,0.187 -25.423,0.094 -23.011,-0.03C-21.154,-0.216 -20.134,-0.309 -19.948,-0.309C-19.577,-0.309 -18.682,-0.184 -17.258,0.063C-17.012,0.063 -16.438,0.016 -15.541,-0.077C-14.646,-0.17 -14.072,-0.216 -13.825,-0.216C-13.764,-0.216 -13.64,-0.2 -13.454,-0.17C-13.268,-0.138 -13.006,-0.107 -12.665,-0.077C-12.326,-0.045 -12.001,-0.03 -11.69,-0.03C-11.567,0.032 -10.855,0.063 -9.557,0.063C-7.764,0.063 -6.866,0.559 -6.866,1.547C-6.866,1.918 -7.084,2.321 -7.516,2.753L-8.907,4.33C-9.464,4.887 -9.742,5.536 -9.742,6.278C-9.742,7.146 -8.754,9.094 -6.773,12.124C-5.599,14.105 -4.856,15.218 -4.547,15.464C-4.485,15.526 -4.361,15.649 -4.176,15.835C-3.99,16.021 -3.773,16.238 -3.525,16.485C-3.279,16.732 -3.031,16.981 -2.783,17.228C-2.475,17.537 -1.98,18.311 -1.299,19.547L0,21.588C0.803,23.32 1.392,24.186 1.763,24.186C3.556,24.186 5.813,21.342 8.536,15.649L9.649,13.423C10.515,12.31 11.287,11.321 11.969,10.454C12.711,9.526 13.082,8.661 13.082,7.857C13.082,6.99 12.741,6.032 12.062,4.98L11.876,4.794C11.813,4.671 11.69,4.516 11.505,4.33C11.319,4.145 11.164,3.959 11.041,3.774L10.763,3.588C10.638,3.527 10.452,3.388 10.206,3.171C9.958,2.954 9.68,2.723 9.371,2.475C9.123,2.289 9,1.981 9,1.547C9,0.559 9.896,0.063 11.69,0.063L12.618,0.063C12.989,0.063 13.391,0.078 13.824,0.108C14.257,0.141 14.598,0.171 14.845,0.201C15.092,0.233 15.277,0.248 15.402,0.248C15.588,0.248 16.237,0.155 17.351,-0.03C17.659,-0.092 18.061,-0.123 18.557,-0.123C19.113,-0.123 20.35,0.001 22.268,0.248C23.999,0.496 24.865,1.053 24.865,1.918C24.865,2.475 24.711,2.893 24.401,3.171C24.092,3.449 23.071,4.052 21.34,4.98C20.412,5.413 19.299,6.434 18,8.042L17.814,8.32C17.629,8.506 17.365,8.77 17.025,9.108C16.685,9.449 16.33,9.836 15.959,10.269C15.525,10.765 14.783,12.094 13.731,14.258L12.34,16.3L11.319,17.877L10.67,18.805L10.206,19.454L6.866,24.464C5.813,25.702 5.103,26.784 4.731,27.712C4.299,29.011 4.112,30.713 4.175,32.815L4.175,38.846C3.989,40.455 3.896,41.32 3.896,41.443C3.896,41.629 3.974,42.125 4.129,42.928C4.282,43.733 4.329,44.259 4.268,44.505L4.082,48.774L3.989,51.649C3.927,53.134 4.175,54.495 4.731,55.733C5.164,56.723 6.092,57.836 7.516,59.072C8.566,59.94 9.093,60.649 9.093,61.206C9.093,61.763 8.845,61.979 8.351,61.856L6.31,61.763C5.999,61.824 5.35,61.856 4.36,61.856L0,61.67Z" style="fill-rule:nonzero;"/></g></g></g></svg>